M48
METRIC,LZ,000.000
;FILE_FORMAT=3:3
;TYPE=PLATED
;Layer: PTH_Through
;EasyEDA v6.5.40, 2025-03-19 11:18:00
;e3f432f7db7c4c49a0c0585cfcba0d0d,10
;Gerber Generator version 0.2
;Holesize 1 = 0.305 mm
T01C0.305
;Holesize 2 = 0.310 mm
T02C0.310
;Holesize 3 = 0.351 mm
T03C0.351
;Holesize 4 = 0.701 mm
T04C0.701
;Holesize 5 = 1.101 mm
T05C1.101
;Holesize 6 = 1.170 mm
T06C1.170
%
G05
G90
T01
X083312Y000000
X052197Y-005461
X038862Y-004572
X080010Y010160
X074295Y011430
X051308Y-001143
X051308Y001143
X051308Y000000
X036416Y007808
X037376Y007808
X038336Y007808
X048260Y001524
X036449Y-010668
X037592Y-010668
X038735Y-010668
X058674Y-010668
X059817Y-010668
X060960Y-010668
X047371Y-010668
X048514Y-010668
X049657Y-010668
X052705Y-007493
X053848Y-007493
X054991Y-007493
X052705Y004572
X053848Y004572
X054991Y004572
X052705Y007874
X053848Y007874
X054991Y007874
T02
X066040Y003175
X065913Y008001
X066929Y010541
X070739Y004191
X075794Y011430
T03
X035052Y008382
X035052Y001397
X035050Y-001658
X035050Y-008643
X042672Y007366
X042799Y-007620
T04
X056642Y010160
X057912Y010160
X059182Y010160
X062865Y002159
X062865Y000889
X062865Y-000381
X062865Y-001651
X062865Y-002921
X062865Y-004191
X062865Y-005461
X062865Y-006731
X062865Y-008001
X062865Y-009271
X062865Y009271
X062865Y008001
X062865Y006731
X062865Y005461
X062865Y004191
X049911Y010160
X053467Y010160
T05
X059690Y006096
X059690Y003556
X059690Y001016
X059690Y-001524
X059690Y-004064
T06
X037217Y005563
X037217Y-005807
M30
