M48
METRIC,LZ,000.000
;FILE_FORMAT=3:3
;TYPE=PLATED
;Layer: PTH_Through_Via
;EasyEDA v6.5.40, 2025-03-19 11:18:00
;e3f432f7db7c4c49a0c0585cfcba0d0d,10
;Gerber Generator version 0.2
;Holesize 1 = 0.305 mm
T01C0.305
;Holesize 2 = 0.310 mm
T02C0.310
;Holesize 3 = 0.351 mm
T03C0.351
;Holesize 4 = 0.701 mm
T04C0.701
%
G05
G90
T01
X083312Y000000
X052197Y-005461
X038862Y-004572
X080010Y010160
X074295Y011430
X051308Y-001143
X051308Y001143
X051308Y000000
X036416Y007808
X037376Y007808
X038336Y007808
X048260Y001524
X036449Y-010668
X037592Y-010668
X038735Y-010668
X058674Y-010668
X059817Y-010668
X060960Y-010668
X047371Y-010668
X048514Y-010668
X049657Y-010668
X052705Y-007493
X053848Y-007493
X054991Y-007493
X052705Y004572
X053848Y004572
X054991Y004572
X052705Y007874
X053848Y007874
X054991Y007874
T02
X066040Y003175
X065913Y008001
X066929Y010541
X070739Y004191
X075794Y011430
T03
X035052Y008382
X035052Y001397
X035050Y-001658
X035050Y-008643
X042672Y007366
X042799Y-007620
T04
X049911Y010160
X053467Y010160
M30
