G04 Layer: BottomLayer*
G04 EasyEDA v6.5.40, 2025-03-19 11:18:00*
G04 e3f432f7db7c4c49a0c0585cfcba0d0d,10*
G04 Gerber Generator version 0.2*
G04 Scale: 100 percent, Rotated: No, Reflected: No *
G04 Dimensions in millimeters *
G04 leading zeros omitted , absolute positions ,4 integer and 5 decimal *
%FSLAX45Y45*%
%MOMM*%

%AMMACRO1*21,1,$1,$2,0,0,$3*%
%ADD10C,0.5000*%
%ADD11C,0.2540*%
%ADD12C,0.2600*%
%ADD13C,1.0000*%
%ADD14C,1.8000*%
%ADD15MACRO1,2.2X2.5X90.0000*%
%ADD16C,15.2400*%
%ADD17MACRO1,2.9997X3X-140.0001*%
%ADD18MACRO1,2.9997X3X-139.9998*%
%ADD19O,0.8999982X1.5999968*%
%ADD20R,0.9000X1.6000*%
%ADD21R,1.7000X1.7000*%
%ADD22C,1.7000*%
%ADD23C,2.0000*%
%ADD24C,1.1520*%
%ADD25C,0.6200*%
%ADD26C,0.6096*%
%ADD27C,0.6100*%
%ADD28C,0.0114*%

%LPD*%
G36*
X6667144Y363321D02*
G01*
X6662623Y363372D01*
X6658609Y365302D01*
X6655816Y368858D01*
X6654800Y373227D01*
X6654800Y833577D01*
X6655612Y837590D01*
X6658000Y840943D01*
X6661505Y843127D01*
X6665569Y843686D01*
X6669531Y842670D01*
X6672732Y840079D01*
X6685534Y824839D01*
X6757974Y885596D01*
X6697218Y958037D01*
X6671513Y936498D01*
X6668160Y934618D01*
X6664350Y934110D01*
X6660642Y935024D01*
X6657594Y937260D01*
X6655511Y940511D01*
X6654800Y944270D01*
X6654800Y1183132D01*
X6655562Y1187043D01*
X6657797Y1190294D01*
X6661048Y1192530D01*
X6664959Y1193292D01*
X7620406Y1193292D01*
X7624419Y1192479D01*
X7627772Y1190091D01*
X7629956Y1186586D01*
X7630566Y1182522D01*
X7620558Y1012850D01*
X7619644Y1009142D01*
X7617409Y1006043D01*
X7614158Y1004011D01*
X7610398Y1003300D01*
X7506309Y1003300D01*
X7505090Y1003147D01*
X7353096Y965149D01*
X7200696Y914298D01*
X7112304Y875030D01*
X7108037Y874166D01*
X7103821Y875131D01*
X7100366Y877773D01*
X7059625Y926337D01*
X6987184Y865581D01*
X7018731Y827989D01*
X7020661Y824382D01*
X7021017Y820216D01*
X7019696Y816305D01*
X7016902Y813257D01*
X6901129Y729640D01*
X6897725Y728065D01*
X6893966Y727811D01*
X6890359Y728980D01*
X6887413Y731367D01*
X6862572Y760984D01*
X6790131Y700176D01*
X6832650Y649528D01*
X6834428Y646379D01*
X6835038Y642772D01*
X6834276Y639216D01*
X6831939Y634034D01*
X6743547Y507644D01*
X6674053Y368706D01*
X6671208Y365201D01*
G37*

%LPC*%
G36*
X6882638Y990193D02*
G01*
X6955078Y1051001D01*
X6911289Y1103122D01*
X6906666Y1107490D01*
X6901688Y1110488D01*
X6896201Y1112266D01*
X6890461Y1112774D01*
X6884720Y1111961D01*
X6879285Y1109929D01*
X6874002Y1106373D01*
X6821830Y1062634D01*
G37*

%LPD*%
G36*
X6153251Y122834D02*
G01*
X6148832Y122935D01*
X6144920Y124917D01*
X6142177Y128320D01*
X6141110Y132588D01*
X6141974Y136906D01*
X6145072Y143865D01*
X6152997Y163017D01*
X6155486Y171297D01*
X6159449Y191262D01*
X6160312Y199847D01*
X6160312Y554380D01*
X6160516Y556361D01*
X6163208Y569925D01*
X6163767Y571855D01*
X6169101Y584657D01*
X6170015Y586384D01*
X6177737Y597916D01*
X6178956Y599440D01*
X6197752Y618236D01*
X6199276Y619455D01*
X6208826Y625856D01*
X6211671Y627227D01*
X6215075Y627989D01*
X6218529Y627583D01*
X6221628Y626008D01*
X6233820Y616915D01*
X6236614Y613714D01*
X6237833Y609600D01*
X6237325Y605383D01*
X6235039Y601726D01*
X6227978Y594360D01*
X6221272Y584860D01*
X6216142Y574446D01*
X6212636Y563372D01*
X6210858Y551891D01*
X6210858Y540308D01*
X6212636Y528828D01*
X6216142Y517753D01*
X6221272Y507339D01*
X6227978Y497840D01*
X6235852Y489661D01*
X6237935Y486409D01*
X6238646Y482600D01*
X6237935Y478790D01*
X6235852Y475538D01*
X6227978Y467359D01*
X6221272Y457860D01*
X6217615Y450443D01*
X6255156Y450443D01*
X6255156Y462788D01*
X6256121Y467106D01*
X6258864Y470611D01*
X6262827Y472643D01*
X6267246Y472744D01*
X6277813Y470712D01*
X6289395Y470255D01*
X6300927Y471627D01*
X6304991Y472744D01*
X6308699Y473049D01*
X6312255Y471982D01*
X6315202Y469747D01*
X6317183Y466598D01*
X6317843Y462940D01*
X6317843Y450443D01*
X6320790Y450443D01*
X6324701Y449681D01*
X6327952Y447497D01*
X6330188Y444195D01*
X6330950Y440283D01*
X6330950Y397916D01*
X6330188Y394004D01*
X6327952Y390702D01*
X6324701Y388518D01*
X6320790Y387756D01*
X6317843Y387756D01*
X6317843Y349961D01*
X6320536Y350570D01*
X6324498Y349859D01*
X6327902Y347675D01*
X6330137Y344373D01*
X6330950Y340410D01*
X6330950Y294589D01*
X6330137Y290626D01*
X6327902Y287324D01*
X6324498Y285140D01*
X6320536Y284429D01*
X6316624Y285292D01*
X6312154Y287324D01*
X6300927Y290372D01*
X6289395Y291744D01*
X6277813Y291287D01*
X6266383Y289052D01*
X6255461Y285140D01*
X6245250Y279603D01*
X6236004Y272542D01*
X6227978Y264160D01*
X6221272Y254660D01*
X6216142Y244246D01*
X6212636Y233171D01*
X6210858Y221691D01*
X6210858Y210108D01*
X6212636Y198628D01*
X6216142Y187553D01*
X6221272Y177139D01*
X6227978Y167640D01*
X6234430Y160883D01*
X6236716Y157124D01*
X6237224Y152755D01*
X6235852Y148590D01*
X6232855Y145440D01*
X6218275Y135585D01*
X6213094Y132537D01*
X6208420Y130505D01*
X6203188Y129032D01*
X6196025Y127965D01*
X6185662Y127508D01*
X6180988Y127508D01*
X6172454Y126644D01*
G37*

%LPC*%
G36*
X6255156Y350012D02*
G01*
X6255156Y387756D01*
X6217615Y387756D01*
X6221272Y380339D01*
X6227978Y370840D01*
X6236004Y362458D01*
X6245250Y355396D01*
G37*

%LPD*%
G36*
X4055262Y-875792D02*
G01*
X4053281Y-875588D01*
X4039920Y-872947D01*
X4037990Y-872337D01*
X4025392Y-867156D01*
X4023664Y-866190D01*
X4012285Y-858621D01*
X4010761Y-857351D01*
X3943248Y-789838D01*
X3941978Y-788314D01*
X3934409Y-776935D01*
X3933444Y-775208D01*
X3928262Y-762609D01*
X3927652Y-760679D01*
X3925011Y-747318D01*
X3924808Y-745337D01*
X3924808Y-613003D01*
X3925570Y-609092D01*
X3927805Y-605790D01*
X3931158Y-603554D01*
X3935069Y-602843D01*
X3967734Y-603250D01*
X3968750Y-602234D01*
X3968750Y538734D01*
X3967734Y539750D01*
X3857447Y538378D01*
X3853332Y539191D01*
X3849928Y541528D01*
X3847744Y545033D01*
X3847134Y549148D01*
X3847592Y556310D01*
X3846677Y571500D01*
X3843934Y586435D01*
X3839413Y600964D01*
X3833164Y614781D01*
X3825290Y627837D01*
X3815943Y639775D01*
X3805174Y650544D01*
X3793236Y659892D01*
X3780180Y667766D01*
X3766362Y674014D01*
X3751834Y678535D01*
X3736898Y681278D01*
X3721709Y682193D01*
X3706520Y681278D01*
X3691585Y678535D01*
X3677056Y674014D01*
X3663187Y667766D01*
X3650183Y659892D01*
X3638194Y650544D01*
X3627475Y639775D01*
X3618077Y627837D01*
X3610254Y614781D01*
X3604006Y600964D01*
X3599484Y586435D01*
X3596741Y571500D01*
X3595827Y556310D01*
X3596436Y545795D01*
X3595878Y541782D01*
X3593744Y538276D01*
X3590442Y535889D01*
X3586429Y535025D01*
X3464661Y533501D01*
X3460750Y534263D01*
X3457397Y536448D01*
X3455162Y539750D01*
X3454400Y543661D01*
X3454400Y1018032D01*
X3455162Y1021943D01*
X3457397Y1025194D01*
X3460648Y1027430D01*
X3464560Y1028192D01*
X3529990Y1028192D01*
X3536492Y1029004D01*
X3542029Y1031087D01*
X3547160Y1034643D01*
X3550208Y1037640D01*
X3552850Y1041247D01*
X3555339Y1046784D01*
X3556508Y1054252D01*
X3556508Y1183132D01*
X3557270Y1187043D01*
X3559505Y1190294D01*
X3562756Y1192530D01*
X3566668Y1193292D01*
X5618276Y1193292D01*
X5621985Y1192580D01*
X5625185Y1190599D01*
X5627420Y1187551D01*
X5628436Y1183944D01*
X5628030Y1180185D01*
X5626100Y1173784D01*
X5625287Y1165707D01*
X5625287Y1115364D01*
X5624372Y1111097D01*
X5621731Y1107643D01*
X5614060Y1101140D01*
X5606846Y1092657D01*
X5601055Y1083157D01*
X5596788Y1072896D01*
X5594197Y1062075D01*
X5593283Y1050594D01*
X5593283Y981405D01*
X5594197Y969924D01*
X5596788Y959103D01*
X5601055Y948842D01*
X5606846Y939342D01*
X5614060Y930859D01*
X5622544Y923645D01*
X5632043Y917854D01*
X5642305Y913587D01*
X5653125Y910996D01*
X5664200Y910132D01*
X5675274Y910996D01*
X5686094Y913587D01*
X5696356Y917854D01*
X5705856Y923645D01*
X5714339Y930859D01*
X5719978Y937514D01*
X5723432Y940155D01*
X5727700Y941069D01*
X5731967Y940155D01*
X5735421Y937514D01*
X5741060Y930859D01*
X5749544Y923645D01*
X5759043Y917854D01*
X5769305Y913587D01*
X5780125Y910996D01*
X5791200Y910132D01*
X5802274Y910996D01*
X5813094Y913587D01*
X5823356Y917854D01*
X5832856Y923645D01*
X5835497Y925880D01*
X5839307Y927963D01*
X5843625Y928217D01*
X5847638Y926642D01*
X5850686Y923594D01*
X5852972Y919886D01*
X5857087Y915771D01*
X5861964Y912723D01*
X5867450Y910793D01*
X5873750Y910082D01*
X5889345Y910082D01*
X5889345Y969670D01*
X5872175Y969670D01*
X5868111Y970483D01*
X5864707Y972921D01*
X5862574Y976477D01*
X5862116Y981405D01*
X5862116Y1050594D01*
X5862574Y1055522D01*
X5864707Y1059078D01*
X5868111Y1061516D01*
X5872175Y1062329D01*
X5889345Y1062329D01*
X5889345Y1088847D01*
X5890107Y1092758D01*
X5892342Y1096060D01*
X5895644Y1098245D01*
X5899505Y1099007D01*
X5936894Y1099007D01*
X5940755Y1098245D01*
X5944057Y1096060D01*
X5946292Y1092758D01*
X5947054Y1088847D01*
X5947054Y1062329D01*
X5989116Y1062329D01*
X5989116Y1088847D01*
X5989878Y1092758D01*
X5992063Y1096060D01*
X5995365Y1098245D01*
X5999276Y1099007D01*
X6235852Y1099007D01*
X6237833Y1098804D01*
X6251397Y1096111D01*
X6253327Y1095552D01*
X6266129Y1090218D01*
X6267856Y1089304D01*
X6279388Y1081582D01*
X6280912Y1080363D01*
X6327952Y1033271D01*
X6330188Y1030020D01*
X6330950Y1026109D01*
X6330950Y1005789D01*
X6330137Y1001826D01*
X6327902Y998524D01*
X6324498Y996340D01*
X6320536Y995629D01*
X6316624Y996492D01*
X6312154Y998524D01*
X6300927Y1001572D01*
X6289395Y1002944D01*
X6277813Y1002487D01*
X6266383Y1000252D01*
X6255258Y996238D01*
X6239967Y988517D01*
X6213094Y975715D01*
X6201867Y969568D01*
X6191758Y963117D01*
X6181293Y955294D01*
X6169558Y945642D01*
X6012586Y788670D01*
X5994857Y772007D01*
X5979820Y759510D01*
X5966307Y749655D01*
X5941212Y732942D01*
X5926429Y722376D01*
X5923635Y721004D01*
X5920536Y720496D01*
X5884570Y720496D01*
X5878271Y719785D01*
X5872784Y717905D01*
X5867908Y714806D01*
X5863793Y710692D01*
X5860694Y705815D01*
X5858814Y700328D01*
X5858103Y694029D01*
X5858103Y689406D01*
X5857240Y685342D01*
X5854852Y681939D01*
X5849112Y679094D01*
X5836107Y676046D01*
X5820003Y674014D01*
X5799328Y673201D01*
X4707178Y673201D01*
X4696206Y674166D01*
X4686300Y676656D01*
X4676952Y680669D01*
X4668266Y686155D01*
X4661154Y692302D01*
X4626203Y727202D01*
X4622139Y730910D01*
X4609236Y741527D01*
X4604816Y744778D01*
X4590897Y754075D01*
X4586224Y756869D01*
X4571492Y764743D01*
X4566513Y767130D01*
X4551070Y773480D01*
X4545888Y775360D01*
X4529937Y780186D01*
X4524552Y781558D01*
X4508195Y784809D01*
X4502759Y785622D01*
X4486148Y787247D01*
X4480661Y787501D01*
X4295190Y787501D01*
X4291482Y788212D01*
X4288840Y789228D01*
X4279188Y792175D01*
X4269638Y793445D01*
X4259986Y792988D01*
X4250537Y790956D01*
X4241596Y787400D01*
X4233367Y782320D01*
X4226153Y775970D01*
X4220057Y768451D01*
X4215384Y760018D01*
X4212183Y750925D01*
X4210558Y741426D01*
X4210558Y731774D01*
X4212183Y722274D01*
X4215384Y713181D01*
X4220057Y704748D01*
X4226153Y697230D01*
X4233367Y690880D01*
X4241596Y685800D01*
X4250537Y682244D01*
X4259986Y680212D01*
X4269638Y679754D01*
X4279188Y681024D01*
X4288586Y683869D01*
X4290517Y684784D01*
X4294733Y685698D01*
X4477918Y685698D01*
X4491024Y684377D01*
X4503013Y681990D01*
X4514646Y678383D01*
X4525924Y673658D01*
X4536643Y667867D01*
X4546752Y661060D01*
X4556150Y653288D01*
X4589170Y620268D01*
X4596231Y611835D01*
X4601464Y603097D01*
X4605274Y593598D01*
X4607509Y583641D01*
X4608220Y574243D01*
X4608220Y-269798D01*
X4607458Y-273710D01*
X4605223Y-277012D01*
X4603597Y-278638D01*
X4600295Y-280822D01*
X4596434Y-281584D01*
X4301286Y-281584D01*
X4297375Y-280822D01*
X4294124Y-278638D01*
X4291888Y-275336D01*
X4291126Y-271424D01*
X4291126Y-223062D01*
X4290415Y-216763D01*
X4288485Y-211277D01*
X4285437Y-206400D01*
X4281322Y-202285D01*
X4276445Y-199237D01*
X4270959Y-197307D01*
X4264660Y-196596D01*
X4015790Y-196596D01*
X4009440Y-197307D01*
X4004005Y-199237D01*
X3999077Y-202285D01*
X3995013Y-206400D01*
X3991914Y-211277D01*
X3990035Y-216763D01*
X3989324Y-223062D01*
X3989324Y-441909D01*
X3990035Y-448259D01*
X3991914Y-453694D01*
X3995013Y-458622D01*
X3999077Y-462686D01*
X4004005Y-465785D01*
X4009440Y-467715D01*
X4015790Y-468426D01*
X4264660Y-468426D01*
X4270959Y-467715D01*
X4276445Y-465785D01*
X4281322Y-462686D01*
X4285437Y-458622D01*
X4288485Y-453694D01*
X4290415Y-448259D01*
X4291126Y-441909D01*
X4291126Y-393598D01*
X4291888Y-389686D01*
X4294124Y-386384D01*
X4297375Y-384200D01*
X4301286Y-383438D01*
X4596434Y-383438D01*
X4600295Y-384200D01*
X4603597Y-386384D01*
X4605223Y-388010D01*
X4607458Y-391312D01*
X4608220Y-395224D01*
X4608220Y-557174D01*
X4606950Y-570280D01*
X4604512Y-582218D01*
X4600905Y-593902D01*
X4596180Y-605180D01*
X4590389Y-615899D01*
X4583582Y-626008D01*
X4575810Y-635406D01*
X4532528Y-678688D01*
X4522317Y-687070D01*
X4512157Y-693775D01*
X4501388Y-699516D01*
X4490059Y-704138D01*
X4478375Y-707593D01*
X4466437Y-709930D01*
X4454296Y-711098D01*
X4307890Y-711098D01*
X4304182Y-710387D01*
X4301540Y-709371D01*
X4291888Y-706424D01*
X4282338Y-705154D01*
X4272686Y-705612D01*
X4263237Y-707644D01*
X4254296Y-711200D01*
X4246067Y-716280D01*
X4238853Y-722630D01*
X4232757Y-730148D01*
X4228084Y-738581D01*
X4224883Y-747674D01*
X4223258Y-757174D01*
X4223258Y-766826D01*
X4224883Y-776325D01*
X4228084Y-785418D01*
X4232757Y-793851D01*
X4238853Y-801370D01*
X4246067Y-807720D01*
X4254296Y-812800D01*
X4263237Y-816356D01*
X4272686Y-818388D01*
X4282338Y-818845D01*
X4291888Y-817575D01*
X4301286Y-814730D01*
X4303217Y-813816D01*
X4307433Y-812901D01*
X4457039Y-812901D01*
X4462526Y-812647D01*
X4479137Y-811022D01*
X4484573Y-810209D01*
X4500930Y-806958D01*
X4506315Y-805586D01*
X4522266Y-800760D01*
X4527448Y-798880D01*
X4542891Y-792530D01*
X4547870Y-790143D01*
X4562602Y-782269D01*
X4567275Y-779475D01*
X4581194Y-770178D01*
X4585614Y-766927D01*
X4598517Y-756310D01*
X4602581Y-752602D01*
X4649724Y-705459D01*
X4653432Y-701395D01*
X4664049Y-688492D01*
X4667300Y-684072D01*
X4676597Y-670153D01*
X4679391Y-665480D01*
X4687265Y-650748D01*
X4689652Y-645769D01*
X4696002Y-630326D01*
X4697882Y-625144D01*
X4702708Y-609193D01*
X4704080Y-603808D01*
X4707331Y-587451D01*
X4708144Y-582015D01*
X4709769Y-565404D01*
X4710023Y-559917D01*
X4710023Y559612D01*
X4710785Y563473D01*
X4713020Y566775D01*
X4714646Y568401D01*
X4717948Y570636D01*
X4721809Y571398D01*
X5799124Y571398D01*
X5818124Y570484D01*
X5831636Y568248D01*
X5841847Y564997D01*
X5850229Y560882D01*
X5853480Y558800D01*
X5855919Y556514D01*
X5857544Y553567D01*
X5858103Y550265D01*
X5858103Y525170D01*
X5858814Y518871D01*
X5860694Y513384D01*
X5863793Y508508D01*
X5867908Y504393D01*
X5872784Y501294D01*
X5878271Y499414D01*
X5884570Y498703D01*
X6053429Y498703D01*
X6059728Y499414D01*
X6065215Y501294D01*
X6066942Y502412D01*
X6070955Y503834D01*
X6075273Y503529D01*
X6079032Y501446D01*
X6081572Y497992D01*
X6082487Y493776D01*
X6082487Y418185D01*
X6081572Y413969D01*
X6078931Y410464D01*
X6075070Y408432D01*
X6070701Y408178D01*
X6066637Y409803D01*
X6063640Y412953D01*
X6059932Y419049D01*
X6051092Y430174D01*
X6040882Y440029D01*
X6029502Y448513D01*
X6017107Y455523D01*
X6003950Y460857D01*
X5990183Y464464D01*
X5976112Y466242D01*
X5961888Y466242D01*
X5947816Y464464D01*
X5934049Y460857D01*
X5920892Y455523D01*
X5908497Y448513D01*
X5897118Y440029D01*
X5886907Y430174D01*
X5878068Y419049D01*
X5870702Y406908D01*
X5864961Y393903D01*
X5860897Y380288D01*
X5858611Y366268D01*
X5858154Y352044D01*
X5859526Y337921D01*
X5862675Y324053D01*
X5867603Y310692D01*
X5874156Y298094D01*
X5882284Y286461D01*
X5891834Y275945D01*
X5902655Y266750D01*
X5914593Y258978D01*
X5927394Y252831D01*
X5940856Y248361D01*
X5954826Y245617D01*
X5969000Y244703D01*
X5983173Y245617D01*
X5997143Y248361D01*
X6010605Y252831D01*
X6023406Y258978D01*
X6035344Y266750D01*
X6046165Y275945D01*
X6055715Y286461D01*
X6063996Y298348D01*
X6067094Y301294D01*
X6071158Y302666D01*
X6075375Y302260D01*
X6079083Y300126D01*
X6081623Y296722D01*
X6082487Y292557D01*
X6082487Y204165D01*
X6082284Y202184D01*
X6079998Y190703D01*
X6077508Y184150D01*
X6075426Y181000D01*
X6072276Y178816D01*
X6068568Y177901D01*
X6064808Y178460D01*
X6061506Y179679D01*
X6050991Y184607D01*
X6038545Y191160D01*
X6022848Y199034D01*
X6009386Y204825D01*
X6004102Y206806D01*
X5990183Y210464D01*
X5976112Y212242D01*
X5961888Y212242D01*
X5947816Y210464D01*
X5934049Y206857D01*
X5920892Y201523D01*
X5908497Y194513D01*
X5897118Y186029D01*
X5886907Y176174D01*
X5878068Y165049D01*
X5870702Y152908D01*
X5864961Y139903D01*
X5860897Y126288D01*
X5858611Y112268D01*
X5858256Y100634D01*
X5857392Y96824D01*
X5855106Y93624D01*
X5851855Y91541D01*
X5847994Y90830D01*
X5844184Y91592D01*
X5840933Y93776D01*
X5642000Y292709D01*
X5635396Y298145D01*
X5616905Y310489D01*
X5609336Y314553D01*
X5588762Y323037D01*
X5580583Y325526D01*
X5558790Y329844D01*
X5550255Y330708D01*
X4939944Y330708D01*
X4931410Y329844D01*
X4909616Y325526D01*
X4901438Y323037D01*
X4880864Y314553D01*
X4873345Y310489D01*
X4854803Y298145D01*
X4848199Y292709D01*
X4816144Y260654D01*
X4810709Y254050D01*
X4802886Y242316D01*
X4798872Y234797D01*
X4792522Y219405D01*
X4780229Y187756D01*
X4773117Y171856D01*
X4770526Y162204D01*
X4769662Y152400D01*
X4770526Y142595D01*
X4773066Y133146D01*
X4777181Y124206D01*
X4782820Y116179D01*
X4789779Y109220D01*
X4797806Y103581D01*
X4806746Y99466D01*
X4816195Y96926D01*
X4826000Y96062D01*
X4835804Y96926D01*
X4845253Y99466D01*
X4854194Y103581D01*
X4862220Y109220D01*
X4869180Y116179D01*
X4874818Y124206D01*
X4878933Y133146D01*
X4881473Y142595D01*
X4882337Y152400D01*
X4881473Y162204D01*
X4878933Y171805D01*
X4876088Y178206D01*
X4873752Y182676D01*
X4868773Y190906D01*
X4867554Y193852D01*
X4867351Y197002D01*
X4868570Y201269D01*
X4872532Y207568D01*
X4873802Y209092D01*
X4899761Y235051D01*
X4901285Y236321D01*
X4912664Y243890D01*
X4914392Y244856D01*
X4926990Y250037D01*
X4928920Y250647D01*
X4942281Y253288D01*
X4944262Y253492D01*
X5545937Y253492D01*
X5547918Y253288D01*
X5561279Y250647D01*
X5563209Y250037D01*
X5575808Y244856D01*
X5577535Y243890D01*
X5588914Y236321D01*
X5590438Y235051D01*
X5851499Y-26009D01*
X5858103Y-31445D01*
X5876594Y-43789D01*
X5884164Y-47853D01*
X5893511Y-51714D01*
X5896813Y-53949D01*
X5899048Y-57251D01*
X5899759Y-61163D01*
X5898946Y-65074D01*
X5896711Y-68376D01*
X5886907Y-77825D01*
X5878068Y-88950D01*
X5870702Y-101092D01*
X5864961Y-114096D01*
X5860897Y-127711D01*
X5858611Y-141732D01*
X5858154Y-155956D01*
X5859526Y-170078D01*
X5862675Y-183946D01*
X5867603Y-197307D01*
X5874156Y-209905D01*
X5882284Y-221538D01*
X5891834Y-232054D01*
X5902655Y-241249D01*
X5914593Y-249021D01*
X5927394Y-255168D01*
X5940856Y-259638D01*
X5954826Y-262382D01*
X5969000Y-263296D01*
X5983173Y-262382D01*
X5997143Y-259638D01*
X6010605Y-255168D01*
X6023406Y-249021D01*
X6035344Y-241249D01*
X6046165Y-232054D01*
X6055715Y-221538D01*
X6063843Y-209905D01*
X6070396Y-197307D01*
X6075324Y-183946D01*
X6078474Y-170078D01*
X6079845Y-155956D01*
X6079388Y-141732D01*
X6077102Y-127711D01*
X6073089Y-114096D01*
X6067298Y-101092D01*
X6059932Y-88950D01*
X6051092Y-77876D01*
X6040221Y-67360D01*
X6037935Y-64109D01*
X6037122Y-60198D01*
X6037884Y-56235D01*
X6040069Y-52933D01*
X6043422Y-50698D01*
X6050280Y-47853D01*
X6057798Y-43789D01*
X6076340Y-31445D01*
X6082944Y-26009D01*
X6140805Y31851D01*
X6142329Y33121D01*
X6153708Y40690D01*
X6155436Y41656D01*
X6168034Y46837D01*
X6170015Y47447D01*
X6183731Y50088D01*
X6186119Y50292D01*
X6197142Y49733D01*
X6204508Y48463D01*
X6209741Y46786D01*
X6214110Y44704D01*
X6218783Y41910D01*
X6232855Y32410D01*
X6235852Y29209D01*
X6237224Y25044D01*
X6236766Y20675D01*
X6234480Y16916D01*
X6227978Y10160D01*
X6221272Y660D01*
X6216142Y-9753D01*
X6212636Y-20828D01*
X6210858Y-32308D01*
X6210858Y-43891D01*
X6212636Y-55372D01*
X6216142Y-66446D01*
X6221272Y-76860D01*
X6227978Y-86360D01*
X6235852Y-94538D01*
X6237935Y-97790D01*
X6238646Y-101600D01*
X6237935Y-105410D01*
X6235852Y-108661D01*
X6227978Y-116839D01*
X6221272Y-126339D01*
X6216142Y-136753D01*
X6212636Y-147828D01*
X6210858Y-159308D01*
X6210858Y-170891D01*
X6212636Y-182372D01*
X6216142Y-193446D01*
X6221272Y-203860D01*
X6227978Y-213360D01*
X6235852Y-221538D01*
X6237935Y-224790D01*
X6238646Y-228600D01*
X6237935Y-232410D01*
X6235852Y-235661D01*
X6227978Y-243840D01*
X6221272Y-253339D01*
X6216142Y-263753D01*
X6212636Y-274828D01*
X6210858Y-286308D01*
X6210858Y-297891D01*
X6212636Y-309372D01*
X6216142Y-320446D01*
X6221272Y-330860D01*
X6227978Y-340360D01*
X6235852Y-348538D01*
X6237935Y-351790D01*
X6238646Y-355600D01*
X6237935Y-359410D01*
X6235852Y-362661D01*
X6227978Y-370840D01*
X6221272Y-380339D01*
X6216142Y-390753D01*
X6212636Y-401828D01*
X6210858Y-413308D01*
X6210858Y-424891D01*
X6212636Y-436372D01*
X6216142Y-447446D01*
X6221272Y-457860D01*
X6227978Y-467359D01*
X6234430Y-474116D01*
X6236716Y-477875D01*
X6237224Y-482244D01*
X6235852Y-486409D01*
X6232855Y-489559D01*
X6218275Y-499414D01*
X6213094Y-502462D01*
X6208420Y-504494D01*
X6203188Y-505968D01*
X6196025Y-507034D01*
X6185662Y-507492D01*
X6048552Y-507492D01*
X6044539Y-506679D01*
X6041186Y-504342D01*
X6039053Y-500837D01*
X6038443Y-496773D01*
X6039459Y-492810D01*
X6041999Y-489610D01*
X6046165Y-486054D01*
X6055715Y-475538D01*
X6063843Y-463905D01*
X6068314Y-455269D01*
X6017869Y-455269D01*
X6017869Y-497332D01*
X6017056Y-501243D01*
X6014872Y-504494D01*
X6011570Y-506730D01*
X6007709Y-507492D01*
X5930290Y-507492D01*
X5926429Y-506730D01*
X5923127Y-504494D01*
X5920943Y-501243D01*
X5920130Y-497332D01*
X5920130Y-455269D01*
X5869686Y-455269D01*
X5874156Y-463905D01*
X5882284Y-475538D01*
X5891834Y-486054D01*
X5896000Y-489610D01*
X5898540Y-492810D01*
X5899556Y-496773D01*
X5898946Y-500837D01*
X5896813Y-504342D01*
X5893460Y-506679D01*
X5889447Y-507492D01*
X5281168Y-507492D01*
X5274005Y-507238D01*
X5268366Y-506526D01*
X5265826Y-505866D01*
X5259578Y-503275D01*
X5244896Y-495655D01*
X5239105Y-493166D01*
X5229504Y-490626D01*
X5219700Y-489762D01*
X5209895Y-490626D01*
X5200446Y-493166D01*
X5191506Y-497281D01*
X5183479Y-502920D01*
X5176520Y-509879D01*
X5170881Y-517906D01*
X5166766Y-526846D01*
X5164226Y-536295D01*
X5163362Y-546100D01*
X5164226Y-555904D01*
X5166766Y-565353D01*
X5170881Y-574294D01*
X5176520Y-582320D01*
X5183479Y-589280D01*
X5191506Y-594918D01*
X5200446Y-599033D01*
X5209895Y-601573D01*
X5219700Y-602437D01*
X5229504Y-601573D01*
X5239105Y-599033D01*
X5244896Y-596544D01*
X5263845Y-586994D01*
X5266639Y-586130D01*
X5275021Y-584860D01*
X5281168Y-584708D01*
X6185662Y-584708D01*
X6197142Y-585266D01*
X6204508Y-586536D01*
X6209741Y-588213D01*
X6214110Y-590296D01*
X6218783Y-593090D01*
X6232855Y-602589D01*
X6235852Y-605790D01*
X6237224Y-609955D01*
X6236766Y-614324D01*
X6234480Y-618083D01*
X6227978Y-624840D01*
X6221272Y-634339D01*
X6216142Y-644753D01*
X6212636Y-655828D01*
X6210858Y-667308D01*
X6210858Y-678891D01*
X6212636Y-690372D01*
X6216142Y-701446D01*
X6221272Y-711860D01*
X6227978Y-721360D01*
X6235852Y-729538D01*
X6237935Y-732790D01*
X6238646Y-736600D01*
X6237935Y-740410D01*
X6235852Y-743661D01*
X6227978Y-751840D01*
X6221272Y-761339D01*
X6216142Y-771753D01*
X6212636Y-782828D01*
X6210858Y-794308D01*
X6210858Y-805891D01*
X6212636Y-817372D01*
X6216142Y-828446D01*
X6221272Y-838860D01*
X6227978Y-848360D01*
X6230823Y-851357D01*
X6232906Y-854608D01*
X6233668Y-858418D01*
X6232906Y-862228D01*
X6230772Y-865479D01*
X6227572Y-867714D01*
X6221476Y-870305D01*
X6215024Y-872540D01*
X6208014Y-874166D01*
X6199225Y-875334D01*
X6187389Y-875792D01*
G37*

%LPC*%
G36*
X6017869Y-357530D02*
G01*
X6068415Y-357530D01*
X6067298Y-355092D01*
X6059932Y-342950D01*
X6051092Y-331825D01*
X6040882Y-321970D01*
X6029502Y-313486D01*
X6017869Y-306933D01*
G37*
G36*
X5869584Y-357530D02*
G01*
X5920130Y-357530D01*
X5920130Y-306933D01*
X5908497Y-313486D01*
X5897118Y-321970D01*
X5886907Y-331825D01*
X5878068Y-342950D01*
X5870702Y-355092D01*
G37*
G36*
X5363565Y-157022D02*
G01*
X5380075Y-156565D01*
X5396382Y-154228D01*
X5412333Y-150012D01*
X5427675Y-144068D01*
X5442254Y-136347D01*
X5455869Y-127050D01*
X5468315Y-116230D01*
X5479491Y-104089D01*
X5489194Y-90779D01*
X5497271Y-76403D01*
X5503722Y-61214D01*
X5508345Y-45415D01*
X5511139Y-29159D01*
X5512104Y-12700D01*
X5511139Y3759D01*
X5508345Y20015D01*
X5503722Y35814D01*
X5497271Y51003D01*
X5489194Y65379D01*
X5479491Y78689D01*
X5468315Y90830D01*
X5455869Y101650D01*
X5442254Y110947D01*
X5427675Y118668D01*
X5412333Y124612D01*
X5396382Y128828D01*
X5380075Y131165D01*
X5363565Y131622D01*
X5347157Y130200D01*
X5331002Y126949D01*
X5315305Y121869D01*
X5300319Y115011D01*
X5286197Y106476D01*
X5273141Y96418D01*
X5261305Y84937D01*
X5250891Y72186D01*
X5242001Y58318D01*
X5234686Y43484D01*
X5229148Y27990D01*
X5225440Y11938D01*
X5223560Y-4470D01*
X5223560Y-20929D01*
X5225440Y-37338D01*
X5229148Y-53390D01*
X5234686Y-68884D01*
X5242001Y-83718D01*
X5250891Y-97586D01*
X5261305Y-110337D01*
X5273141Y-121818D01*
X5286197Y-131876D01*
X5300319Y-140411D01*
X5315305Y-147269D01*
X5331002Y-152349D01*
X5347157Y-155600D01*
G37*
G36*
X4015790Y196596D02*
G01*
X4071365Y196596D01*
X4071365Y271170D01*
X3989324Y271170D01*
X3989324Y223062D01*
X3990035Y216763D01*
X3991914Y211277D01*
X3995013Y206400D01*
X3999077Y202285D01*
X4004005Y199237D01*
X4009440Y197307D01*
G37*
G36*
X4209084Y196596D02*
G01*
X4264660Y196596D01*
X4270959Y197307D01*
X4276445Y199237D01*
X4281322Y202285D01*
X4285437Y206400D01*
X4288485Y211277D01*
X4290415Y216763D01*
X4291126Y223062D01*
X4291126Y271170D01*
X4209084Y271170D01*
G37*
G36*
X4209084Y393852D02*
G01*
X4291126Y393852D01*
X4291126Y441909D01*
X4290415Y448259D01*
X4288485Y453694D01*
X4285437Y458622D01*
X4281322Y462686D01*
X4276445Y465785D01*
X4270959Y467715D01*
X4264660Y468426D01*
X4209084Y468426D01*
G37*
G36*
X3989324Y393852D02*
G01*
X4071365Y393852D01*
X4071365Y468426D01*
X4015790Y468426D01*
X4009440Y467715D01*
X4004005Y465785D01*
X3999077Y462686D01*
X3995013Y458622D01*
X3991914Y453694D01*
X3990035Y448259D01*
X3989324Y441909D01*
G37*
G36*
X5947054Y910082D02*
G01*
X5962650Y910082D01*
X5968949Y910793D01*
X5974435Y912723D01*
X5979312Y915771D01*
X5983427Y919886D01*
X5986475Y924763D01*
X5988405Y930249D01*
X5989116Y936548D01*
X5989116Y969670D01*
X5947054Y969670D01*
G37*
G36*
X5349595Y940155D02*
G01*
X5361127Y941527D01*
X5372354Y944575D01*
X5382971Y949350D01*
X5392674Y955649D01*
X5401360Y963371D01*
X5408777Y972362D01*
X5414721Y982319D01*
X5419039Y993089D01*
X5421680Y1004417D01*
X5422595Y1016000D01*
X5421680Y1027582D01*
X5419039Y1038910D01*
X5414721Y1049680D01*
X5408777Y1059637D01*
X5401360Y1068628D01*
X5392674Y1076350D01*
X5382971Y1082649D01*
X5372354Y1087424D01*
X5361127Y1090472D01*
X5349595Y1091844D01*
X5338013Y1091387D01*
X5326583Y1089152D01*
X5315661Y1085240D01*
X5305450Y1079703D01*
X5296204Y1072642D01*
X5288178Y1064260D01*
X5281472Y1054760D01*
X5276342Y1044346D01*
X5272836Y1033271D01*
X5271058Y1021791D01*
X5271058Y1010208D01*
X5272836Y998728D01*
X5276342Y987653D01*
X5281472Y977239D01*
X5288178Y967740D01*
X5296204Y959358D01*
X5305450Y952296D01*
X5315661Y946759D01*
X5326583Y942848D01*
X5338013Y940612D01*
G37*
G36*
X4993995Y940155D02*
G01*
X5005527Y941527D01*
X5016754Y944575D01*
X5027371Y949350D01*
X5037074Y955649D01*
X5045760Y963371D01*
X5053177Y972362D01*
X5059121Y982319D01*
X5063439Y993089D01*
X5066080Y1004417D01*
X5066995Y1016000D01*
X5066080Y1027582D01*
X5063439Y1038910D01*
X5059121Y1049680D01*
X5053177Y1059637D01*
X5045760Y1068628D01*
X5037074Y1076350D01*
X5027371Y1082649D01*
X5016754Y1087424D01*
X5005527Y1090472D01*
X4993995Y1091844D01*
X4982413Y1091387D01*
X4970983Y1089152D01*
X4960061Y1085240D01*
X4949850Y1079703D01*
X4940604Y1072642D01*
X4932578Y1064260D01*
X4925872Y1054760D01*
X4920742Y1044346D01*
X4917236Y1033271D01*
X4915458Y1021791D01*
X4915458Y1010208D01*
X4917236Y998728D01*
X4920742Y987653D01*
X4925872Y977239D01*
X4932578Y967740D01*
X4940604Y959358D01*
X4949850Y952296D01*
X4960061Y946759D01*
X4970983Y942848D01*
X4982413Y940612D01*
G37*

%LPD*%
G36*
X7642859Y-1193292D02*
G01*
X7638948Y-1192530D01*
X7635697Y-1190294D01*
X7633462Y-1187043D01*
X7632700Y-1183132D01*
X7632700Y-1002334D01*
X7633614Y-998118D01*
X7636205Y-994664D01*
X7640015Y-992581D01*
X7644282Y-992276D01*
X7720939Y-1003198D01*
X7722260Y-1003198D01*
X7822336Y-990701D01*
X7823962Y-990193D01*
X7899806Y-952347D01*
X8026806Y-901446D01*
X8091119Y-859840D01*
X8095335Y-858266D01*
X8099806Y-858723D01*
X8103666Y-861009D01*
X8106105Y-864768D01*
X8107680Y-868883D01*
X8111185Y-874166D01*
X8154974Y-926337D01*
X8227415Y-865581D01*
X8183727Y-813511D01*
X8181695Y-809752D01*
X8181441Y-805484D01*
X8182965Y-801471D01*
X8185962Y-798423D01*
X8242604Y-761746D01*
X8297824Y-712622D01*
X8301329Y-710590D01*
X8305342Y-710082D01*
X8309203Y-711200D01*
X8312353Y-713689D01*
X8352028Y-760984D01*
X8424468Y-700176D01*
X8377174Y-643737D01*
X8376259Y-640130D01*
X8376666Y-636371D01*
X8378444Y-633069D01*
X8407603Y-596646D01*
X8495893Y-470509D01*
X8496554Y-469188D01*
X8534603Y-355142D01*
X8585301Y-240792D01*
X8608822Y-134975D01*
X8610142Y-131775D01*
X8612378Y-129235D01*
X8615375Y-127558D01*
X8618728Y-127000D01*
X8638032Y-127000D01*
X8641943Y-127762D01*
X8645194Y-129997D01*
X8647430Y-133248D01*
X8648192Y-137160D01*
X8648192Y-1183132D01*
X8647430Y-1187043D01*
X8645194Y-1190294D01*
X8641943Y-1192530D01*
X8638032Y-1193292D01*
G37*

%LPC*%
G36*
X8324138Y-1112774D02*
G01*
X8329879Y-1111961D01*
X8335314Y-1109929D01*
X8340598Y-1106373D01*
X8392769Y-1062634D01*
X8331962Y-990193D01*
X8259521Y-1051001D01*
X8303310Y-1103122D01*
X8307933Y-1107490D01*
X8312912Y-1110488D01*
X8318398Y-1112266D01*
G37*
G36*
X8517382Y-958037D02*
G01*
X8569553Y-914298D01*
X8573922Y-909675D01*
X8576868Y-904697D01*
X8578646Y-899210D01*
X8579154Y-893419D01*
X8578392Y-887679D01*
X8576310Y-882294D01*
X8572804Y-877011D01*
X8529066Y-824839D01*
X8456625Y-885596D01*
G37*

%LPD*%
G36*
X3566668Y-1193292D02*
G01*
X3562756Y-1192530D01*
X3559505Y-1190294D01*
X3557270Y-1187043D01*
X3556508Y-1183132D01*
X3556508Y-1067409D01*
X3555695Y-1060907D01*
X3553612Y-1055370D01*
X3550056Y-1050239D01*
X3547059Y-1047191D01*
X3543452Y-1044549D01*
X3537915Y-1042060D01*
X3530447Y-1040892D01*
X3471011Y-1040892D01*
X3467201Y-1040130D01*
X3463899Y-1037945D01*
X3461715Y-1034745D01*
X3460902Y-1030884D01*
X3454552Y-607364D01*
X3455314Y-603351D01*
X3457498Y-599998D01*
X3460902Y-597763D01*
X3464864Y-597052D01*
X3588867Y-598576D01*
X3592322Y-599186D01*
X3595319Y-600964D01*
X3597554Y-603605D01*
X3598722Y-606907D01*
X3599484Y-610819D01*
X3604006Y-625348D01*
X3610254Y-639216D01*
X3618077Y-652221D01*
X3627475Y-664159D01*
X3638194Y-674928D01*
X3650183Y-684326D01*
X3663187Y-692150D01*
X3677056Y-698398D01*
X3691585Y-702919D01*
X3706520Y-705662D01*
X3721709Y-706577D01*
X3736898Y-705662D01*
X3751834Y-702919D01*
X3766362Y-698398D01*
X3780180Y-692150D01*
X3793236Y-684326D01*
X3805174Y-674928D01*
X3815943Y-664159D01*
X3825290Y-652221D01*
X3828745Y-646531D01*
X3831742Y-643382D01*
X3835806Y-641756D01*
X3840175Y-642010D01*
X3844036Y-644042D01*
X3846677Y-647547D01*
X3847592Y-651814D01*
X3847592Y-749655D01*
X3848455Y-758190D01*
X3852773Y-779983D01*
X3855262Y-788162D01*
X3863746Y-808736D01*
X3867810Y-816254D01*
X3880154Y-834796D01*
X3885590Y-841400D01*
X3959199Y-915009D01*
X3965803Y-920445D01*
X3984294Y-932789D01*
X3991864Y-936853D01*
X4012437Y-945337D01*
X4020616Y-947826D01*
X4042410Y-952144D01*
X4050944Y-953008D01*
X6187186Y-953008D01*
X6197193Y-953617D01*
X6202883Y-954786D01*
X6207201Y-956767D01*
X6212027Y-960323D01*
X6216091Y-964184D01*
X6229096Y-977392D01*
X6237630Y-985164D01*
X6245250Y-990803D01*
X6255461Y-996340D01*
X6266383Y-1000252D01*
X6277813Y-1002487D01*
X6289395Y-1002944D01*
X6300927Y-1001572D01*
X6312154Y-998524D01*
X6316624Y-996492D01*
X6320536Y-995629D01*
X6324498Y-996340D01*
X6327902Y-998524D01*
X6330137Y-1001826D01*
X6330950Y-1005789D01*
X6330950Y-1183132D01*
X6330188Y-1187043D01*
X6327952Y-1190294D01*
X6324701Y-1192530D01*
X6320790Y-1193292D01*
G37*

%LPD*%
G36*
X3886200Y-441959D02*
G01*
X3858768Y-470509D01*
X3868623Y-489813D01*
X3870299Y-494131D01*
X3871671Y-498856D01*
X3872687Y-504240D01*
X3873296Y-510590D01*
X3873500Y-518159D01*
X3898900Y-518159D01*
X3899103Y-510590D01*
X3899712Y-504240D01*
X3900728Y-498856D01*
X3902100Y-494131D01*
X3903776Y-489813D01*
X3913632Y-470509D01*
G37*
G36*
X6276848Y-878027D02*
G01*
X6265062Y-880871D01*
X6255207Y-884123D01*
X6246723Y-887577D01*
X6231178Y-894334D01*
X6222847Y-897280D01*
X6213348Y-899617D01*
X6201968Y-901141D01*
X6188151Y-901700D01*
X6188151Y-927100D01*
X6199581Y-927709D01*
X6208877Y-929436D01*
X6216548Y-932180D01*
X6223000Y-935888D01*
X6228740Y-940460D01*
X6234226Y-945743D01*
X6246418Y-958138D01*
X6253988Y-965098D01*
X6310680Y-933450D01*
G37*
G36*
X6264706Y718108D02*
G01*
X6243777Y707847D01*
X6227876Y699465D01*
X6220460Y695198D01*
X6204000Y684885D01*
X6181750Y670204D01*
X6196177Y648563D01*
X6205474Y653542D01*
X6213602Y655574D01*
X6220968Y655116D01*
X6227826Y652627D01*
X6234480Y648716D01*
X6248247Y638403D01*
X6256020Y633018D01*
X6264706Y628091D01*
X6311493Y673100D01*
G37*
G36*
X5998870Y181152D02*
G01*
X5926683Y97688D01*
X6012942Y28803D01*
X6032957Y41198D01*
X6049670Y52374D01*
X6063691Y63195D01*
X6075578Y74320D01*
X6085992Y86614D01*
X6095492Y100736D01*
X6104686Y117551D01*
X6114186Y137820D01*
X6124651Y162255D01*
X6100622Y172212D01*
X6093358Y159562D01*
X6084722Y152501D01*
X6074918Y150063D01*
X6064046Y151333D01*
X6052210Y155397D01*
X6039662Y161340D01*
X6012840Y175158D01*
G37*
G36*
X6348018Y41808D02*
G01*
X6338620Y33223D01*
X6330086Y27025D01*
X6322212Y22707D01*
X6314592Y19812D01*
X6306972Y17830D01*
X6290411Y14630D01*
X6280861Y12446D01*
X6270091Y9144D01*
X6268821Y-55778D01*
X6333744Y-54508D01*
X6337046Y-43738D01*
X6339230Y-34188D01*
X6342430Y-17627D01*
X6344412Y-10007D01*
X6347307Y-2387D01*
X6351625Y5537D01*
X6357823Y14020D01*
X6366408Y23418D01*
G37*
G36*
X5784240Y1109980D02*
G01*
X5775502Y1088999D01*
X5768848Y1073861D01*
X5750712Y1035608D01*
X5791200Y993495D01*
X5831687Y1035608D01*
X5827064Y1043736D01*
X5822035Y1050798D01*
X5812332Y1062939D01*
X5808421Y1068882D01*
X5805678Y1075131D01*
X5804458Y1082192D01*
X5805220Y1090320D01*
X5808268Y1100023D01*
G37*
G36*
X5233009Y-518668D02*
G01*
X5204460Y-546100D01*
X5233009Y-573532D01*
X5252313Y-563676D01*
X5256631Y-562000D01*
X5261356Y-560628D01*
X5266740Y-559612D01*
X5273040Y-559003D01*
X5280660Y-558800D01*
X5280660Y-533400D01*
X5273040Y-533196D01*
X5266740Y-532587D01*
X5261356Y-531571D01*
X5256631Y-530199D01*
X5252313Y-528523D01*
G37*
G36*
X6264706Y-501091D02*
G01*
X6254750Y-506425D01*
X6246418Y-511606D01*
X6232448Y-521157D01*
X6225641Y-525170D01*
X6218275Y-528574D01*
X6209639Y-531164D01*
X6199225Y-532841D01*
X6186525Y-533400D01*
X6186525Y-558800D01*
X6199225Y-559358D01*
X6209639Y-561035D01*
X6218275Y-563626D01*
X6225641Y-567029D01*
X6232448Y-571042D01*
X6246418Y-580593D01*
X6254750Y-585774D01*
X6264706Y-591108D01*
X6311493Y-546100D01*
G37*
G36*
X6584950Y813968D02*
G01*
X6571894Y776579D01*
X6579463Y770280D01*
X6582562Y767334D01*
X6585203Y764336D01*
X6587388Y761085D01*
X6589115Y757428D01*
X6590334Y753110D01*
X6591046Y747979D01*
X6591300Y741934D01*
X6616700Y741934D01*
X6616852Y750722D01*
X6617258Y758088D01*
X6618630Y769924D01*
X6620256Y780338D01*
X6621475Y792124D01*
X6621780Y799439D01*
G37*
G36*
X6591300Y378460D02*
G01*
X6591096Y370890D01*
X6590487Y364540D01*
X6589471Y359156D01*
X6588099Y354431D01*
X6586423Y350113D01*
X6576568Y330809D01*
X6604000Y302260D01*
X6631431Y330809D01*
X6621576Y350113D01*
X6619900Y354431D01*
X6618528Y359156D01*
X6617512Y364540D01*
X6616903Y370890D01*
X6616700Y378460D01*
G37*
G36*
X6348018Y-212191D02*
G01*
X6338620Y-220776D01*
X6330086Y-226974D01*
X6322212Y-231292D01*
X6314592Y-234188D01*
X6306972Y-236169D01*
X6290411Y-239369D01*
X6280861Y-241554D01*
X6270091Y-244856D01*
X6268821Y-309778D01*
X6333744Y-308508D01*
X6337046Y-297738D01*
X6339230Y-288188D01*
X6342430Y-271627D01*
X6344412Y-264007D01*
X6347307Y-256387D01*
X6351625Y-248462D01*
X6357823Y-239979D01*
X6366408Y-230581D01*
G37*
G36*
X5651195Y1106017D02*
G01*
X5650738Y1094587D01*
X5649366Y1085240D01*
X5647232Y1077468D01*
X5644388Y1070711D01*
X5640984Y1064564D01*
X5632856Y1051915D01*
X5628386Y1044498D01*
X5623712Y1035608D01*
X5664200Y993495D01*
X5704687Y1035608D01*
X5700014Y1044498D01*
X5695543Y1051915D01*
X5687415Y1064564D01*
X5684012Y1070711D01*
X5681167Y1077468D01*
X5679033Y1085240D01*
X5677662Y1094587D01*
X5677204Y1106017D01*
G37*
G36*
X4819700Y217424D02*
G01*
X4813909Y202895D01*
X4809845Y192074D01*
X4804054Y177647D01*
X4798568Y165709D01*
X4826000Y137160D01*
X4853432Y165709D01*
X4850739Y170738D01*
X4843221Y183286D01*
X4841494Y187248D01*
X4840427Y191516D01*
X4840224Y196189D01*
X4841087Y201523D01*
X4843170Y207721D01*
G37*
G36*
X6264706Y133908D02*
G01*
X6254750Y128574D01*
X6246418Y123393D01*
X6232448Y113842D01*
X6225641Y109829D01*
X6218275Y106426D01*
X6209639Y103835D01*
X6199225Y102158D01*
X6186525Y101600D01*
X6186525Y76200D01*
X6199225Y75641D01*
X6209639Y73964D01*
X6218275Y71374D01*
X6225641Y67970D01*
X6232448Y63957D01*
X6246418Y54406D01*
X6254750Y49225D01*
X6264706Y43891D01*
X6311493Y88900D01*
G37*
G36*
X8001000Y1031240D02*
G01*
X7973568Y1002690D01*
X7974888Y999337D01*
X7975752Y995629D01*
X7976260Y991412D01*
X7976514Y981608D01*
X7976006Y955040D01*
X8025993Y955040D01*
X8025485Y981608D01*
X8025739Y991412D01*
X8026247Y995629D01*
X8027111Y999337D01*
X8028431Y1002690D01*
G37*
G36*
X6345936Y497433D02*
G01*
X6338417Y487781D01*
X6331000Y481126D01*
X6323584Y476808D01*
X6315964Y474268D01*
X6308039Y472897D01*
X6290564Y471017D01*
X6280810Y469341D01*
X6270142Y466343D01*
X6268821Y401421D01*
X6333693Y402640D01*
X6337350Y413562D01*
X6344920Y438861D01*
X6347510Y446278D01*
X6350762Y453948D01*
X6354927Y462330D01*
X6360363Y471830D01*
X6367526Y482955D01*
G37*
G36*
X5937808Y1056487D02*
G01*
X5895695Y1016000D01*
X5937808Y975512D01*
X5946698Y980186D01*
X5954115Y984656D01*
X5966764Y992784D01*
X5972911Y996187D01*
X5979668Y999032D01*
X5987440Y1001166D01*
X5996787Y1002537D01*
X6008217Y1002995D01*
X6008217Y1029004D01*
X5996787Y1029462D01*
X5987440Y1030833D01*
X5979668Y1032967D01*
X5972911Y1035812D01*
X5966764Y1039215D01*
X5954115Y1047343D01*
X5946698Y1051814D01*
G37*
G36*
X7628229Y1193393D02*
G01*
X7617561Y1192885D01*
X7608112Y1191361D01*
X7599730Y1189126D01*
X7592314Y1186332D01*
X7585659Y1183081D01*
X7579715Y1179677D01*
X7564323Y1170076D01*
X7570571Y1130300D01*
X7610043Y1138072D01*
X7610551Y1139444D01*
X7611567Y1140561D01*
X7612989Y1141476D01*
X7617002Y1142644D01*
X7622184Y1143254D01*
X7628229Y1143406D01*
G37*
G36*
X4293412Y-734110D02*
G01*
X4264406Y-762000D01*
X4293412Y-789889D01*
X4297070Y-788466D01*
X4300982Y-787450D01*
X4305300Y-786892D01*
X4309973Y-786587D01*
X4341876Y-786993D01*
X4341876Y-737006D01*
X4309973Y-737412D01*
X4305300Y-737108D01*
X4300982Y-736549D01*
X4297070Y-735533D01*
G37*
G36*
X4280712Y764489D02*
G01*
X4251706Y736600D01*
X4280712Y708710D01*
X4284370Y710133D01*
X4288282Y711149D01*
X4292600Y711708D01*
X4297273Y712012D01*
X4329176Y711606D01*
X4329176Y761593D01*
X4297273Y761187D01*
X4292600Y761492D01*
X4288282Y762050D01*
X4284370Y763066D01*
G37*
G36*
X6721398Y1064971D02*
G01*
X6681825Y1064564D01*
X6683756Y1024991D01*
X6687058Y1023670D01*
X6690309Y1021740D01*
X6693611Y1019251D01*
X6700723Y1012698D01*
X6718960Y993952D01*
X6754317Y1029309D01*
X6731050Y1051560D01*
X6727850Y1055014D01*
X6725158Y1058367D01*
X6722973Y1061618D01*
G37*
G36*
X6262827Y971143D02*
G01*
X6251651Y965403D01*
X6224219Y952296D01*
X6215888Y947826D01*
X6207404Y942441D01*
X6198362Y935786D01*
X6188405Y927353D01*
X6177178Y916635D01*
X6212535Y881278D01*
X6218783Y886612D01*
X6224828Y890016D01*
X6230670Y891692D01*
X6236462Y891946D01*
X6242202Y891082D01*
X6248044Y889304D01*
X6253988Y886917D01*
X6266637Y881227D01*
X6311493Y928166D01*
G37*
G36*
X5943803Y690778D02*
G01*
X5925108Y684225D01*
X5909462Y677570D01*
X5883198Y664768D01*
X5870600Y659130D01*
X5856935Y654304D01*
X5841288Y650595D01*
X5822645Y648157D01*
X5799937Y647293D01*
X5799937Y597306D01*
X5820206Y596392D01*
X5836767Y593750D01*
X5850585Y589534D01*
X5862370Y583895D01*
X5873038Y576986D01*
X5883351Y568960D01*
X5906516Y550062D01*
X5920943Y539496D01*
X6011011Y603250D01*
G37*
G36*
X6030722Y770178D02*
G01*
X6012281Y752805D01*
X5995974Y739292D01*
X5981344Y728573D01*
X5955284Y711200D01*
X5942939Y702462D01*
X5930392Y692200D01*
X5917184Y679450D01*
X5902909Y663041D01*
X5959348Y568198D01*
X6051905Y628345D01*
X6045250Y655523D01*
X6042609Y667461D01*
X6041136Y678738D01*
X6041186Y689559D01*
X6043269Y700328D01*
X6047790Y711250D01*
X6055258Y722630D01*
X6066078Y734822D01*
G37*
D10*
X7607300Y0D02*
G01*
X7955795Y348495D01*
X7966709Y361795D01*
X7976268Y376100D01*
X7984378Y391274D01*
X7990961Y407169D01*
X7995958Y423631D01*
X7999313Y440507D01*
X8001000Y457626D01*
X8001000Y1016000D01*
D11*
X6286500Y-927100D02*
G01*
X6273800Y-914400D01*
X4050446Y-914400D01*
X4027655Y-909866D01*
X4006184Y-900973D01*
X3986862Y-888062D01*
X3912537Y-813737D01*
X3899626Y-794415D01*
X3890733Y-772944D01*
X3886200Y-750153D01*
X3886200Y-457200D01*
D10*
X4267200Y736600D02*
G01*
X4480900Y736600D01*
X4498019Y734913D01*
X4514895Y731558D01*
X4531357Y726561D01*
X4547252Y719978D01*
X4562426Y711868D01*
X4576732Y702310D01*
X4590031Y691395D01*
X4659127Y622300D01*
X4140225Y-332511D02*
G01*
X4659127Y-332511D01*
X4279900Y-762000D02*
G01*
X4457278Y-762000D01*
X4474397Y-760313D01*
X4491273Y-756958D01*
X4507735Y-751961D01*
X4523630Y-745378D01*
X4538804Y-737268D01*
X4553110Y-727710D01*
X4566409Y-716795D01*
X4613922Y-669284D01*
X4624837Y-655985D01*
X4634395Y-641680D01*
X4642505Y-626506D01*
X4649088Y-610610D01*
X4654085Y-594149D01*
X4657440Y-577273D01*
X4659127Y-560153D01*
X4659127Y-332511D01*
X4659127Y622300D01*
X5918200Y622300D01*
X6205888Y909988D01*
X6218443Y918375D01*
X6232390Y924153D01*
X6247201Y927100D01*
X6286500Y927100D01*
D12*
X5969000Y101600D02*
G01*
X6024018Y101600D01*
X6044752Y105724D01*
X6064280Y113812D01*
X6081857Y125557D01*
X6097198Y140898D01*
X6109063Y158653D01*
X6117234Y178381D01*
X6121400Y199323D01*
X6121400Y559214D01*
X6125987Y582274D01*
X6134986Y603996D01*
X6148049Y623549D01*
X6173642Y649142D01*
X6191219Y660887D01*
X6210747Y668975D01*
X6231481Y673100D01*
X6286500Y673100D01*
X6286500Y-38100D02*
G01*
X6424950Y100350D01*
X6438013Y119903D01*
X6447012Y141625D01*
X6451600Y164685D01*
X6451600Y927006D01*
X6447012Y950066D01*
X6438013Y971788D01*
X6424950Y991341D01*
X6305021Y1111270D01*
X6285468Y1124333D01*
X6263746Y1133332D01*
X6240686Y1137920D01*
X5836356Y1137920D01*
X5815637Y1129337D01*
X5799782Y1113482D01*
X5791200Y1092763D01*
X5791200Y1016000D01*
D11*
X5219700Y-546100D02*
G01*
X6286500Y-546100D01*
D12*
X6286500Y419100D02*
G01*
X6354559Y486976D01*
X6367637Y506509D01*
X6376649Y528218D01*
X6381241Y551271D01*
X6381241Y943292D01*
X6378143Y958875D01*
X6372062Y973551D01*
X6363235Y986762D01*
X6352004Y997993D01*
X6338793Y1006820D01*
X6324117Y1012901D01*
X6308534Y1016000D01*
X5918200Y1016000D01*
D13*
X6170300Y-1143000D02*
G01*
X5727700Y-1143000D01*
D10*
X6872734Y875537D02*
G01*
X6694170Y1054100D01*
X6692900Y1054100D01*
D11*
X6591300Y800100D02*
G01*
X6604000Y787400D01*
X6604000Y317500D01*
D12*
X5664200Y1016000D02*
G01*
X5664200Y1130300D01*
X5664200Y1166220D01*
X5679079Y1181100D01*
X6274198Y1181100D01*
X6297305Y1176545D01*
X6319093Y1167607D01*
X6338742Y1154625D01*
X6488277Y1007145D01*
X6501422Y987696D01*
X6510479Y966038D01*
X6515100Y943023D01*
X6515100Y-25814D01*
X6510512Y-48874D01*
X6501513Y-70596D01*
X6488450Y-90149D01*
X6286500Y-292100D01*
D11*
X6286500Y88900D02*
G01*
X6180490Y88900D01*
X6157699Y84366D01*
X6136228Y75473D01*
X6116906Y62562D01*
X6055281Y937D01*
X6035959Y-11973D01*
X6014488Y-20866D01*
X5991697Y-25400D01*
X5942746Y-25400D01*
X5919955Y-20866D01*
X5898484Y-11973D01*
X5879162Y937D01*
X5614337Y265762D01*
X5595015Y278673D01*
X5573544Y287566D01*
X5550753Y292100D01*
X4939446Y292100D01*
X4916655Y287566D01*
X4895184Y278673D01*
X4875862Y265762D01*
X4843111Y233011D01*
X4834724Y220456D01*
X4828946Y206509D01*
X4826000Y191698D01*
X4826000Y152400D01*
D14*
X6210300Y-1092200D02*
G01*
X6380774Y-1092200D01*
X6416751Y-1088656D01*
X6452207Y-1081603D01*
X6486799Y-1071110D01*
X6520197Y-1057275D01*
X6552079Y-1040234D01*
X6582138Y-1020150D01*
X6610083Y-997216D01*
X7607300Y0D01*
D10*
X7579359Y1143000D02*
G01*
X7579359Y1168400D01*
X8318073Y1168400D01*
X8335192Y1166713D01*
X8352068Y1163358D01*
X8368530Y1158361D01*
X8384425Y1151778D01*
X8399599Y1143668D01*
X8413904Y1134110D01*
X8427204Y1123195D01*
X8578095Y972304D01*
X8589009Y959004D01*
X8598568Y944699D01*
X8606678Y929525D01*
X8613261Y913630D01*
X8618258Y897168D01*
X8621613Y880292D01*
X8623300Y863173D01*
X8623300Y-317500D01*
D15*
G01*
X4140215Y-332498D03*
G01*
X4140215Y332501D03*
D16*
G01*
X7607300Y0D03*
D17*
G01*
X6872585Y875598D03*
D18*
G01*
X8341997Y-875578D03*
D10*
G75*
G01*
X4659127Y-395211D02*
G03*
X4596427Y-332511I-62700J0D01*
G75*
G01*
X4721827Y622300D02*
G03*
X4659127Y559600I0J-62700D01*
G75*
G01*
X5870146Y622300D02*
G03*
X5952180Y656280I-1J116014D01*
G75*
G01*
X4625147Y656280D02*
G03*
X4707181Y622300I82035J82034D01*
G75*
G01*
X4659127Y574246D02*
G03*
X4625147Y656280I-116014J-1D01*
G75*
G01*
X4596427Y-332511D02*
G03*
X4659127Y-269811I0J62700D01*
D19*
G01*
X5664200Y1016000D03*
G01*
X5791200Y1016000D03*
D20*
G01*
X5918200Y1016000D03*
D21*
G01*
X5969000Y609600D03*
D22*
G01*
X5969000Y355600D03*
G01*
X5969000Y101600D03*
G01*
X5969000Y-152400D03*
G01*
X5969000Y-406400D03*
D13*
G01*
X6286500Y215900D03*
G01*
X6286500Y88900D03*
G01*
X6286500Y-38100D03*
G01*
X6286500Y-165100D03*
G01*
X6286500Y-292100D03*
G01*
X6286500Y-419100D03*
G01*
X6286500Y-546100D03*
G01*
X6286500Y-673100D03*
G01*
X6286500Y-800100D03*
G01*
X6286500Y-927100D03*
G01*
X6286500Y927100D03*
G01*
X6286500Y800100D03*
G01*
X6286500Y673100D03*
G01*
X6286500Y546100D03*
G01*
X6286500Y419100D03*
D23*
G01*
X3721709Y556310D03*
G01*
X3721709Y-580694D03*
D24*
G01*
X8369300Y647700D03*
G01*
X6604000Y-762000D03*
D25*
G01*
X3505200Y838200D03*
G01*
X3505200Y139700D03*
G01*
X3505022Y-165811D03*
G01*
X3505022Y-864311D03*
D26*
G01*
X8331200Y0D03*
G01*
X5219700Y-546100D03*
G01*
X3886200Y-457200D03*
G01*
X6604000Y317500D03*
G01*
X6591300Y800100D03*
G01*
X8001000Y1016000D03*
G01*
X7429500Y1143000D03*
G01*
X5130800Y-114300D03*
G01*
X5130800Y114300D03*
G01*
X5130800Y0D03*
D27*
G01*
X6692900Y1054100D03*
D13*
G01*
X4991100Y1016000D03*
G01*
X5346700Y1016000D03*
D26*
G01*
X3641597Y780795D03*
G01*
X3737609Y780795D03*
G01*
X3833596Y780795D03*
G01*
X4826000Y152400D03*
D25*
G01*
X4267200Y736600D03*
G01*
X4279900Y-762000D03*
D26*
G01*
X3644900Y-1066800D03*
G01*
X3759200Y-1066800D03*
G01*
X3873500Y-1066800D03*
G01*
X5867400Y-1066800D03*
G01*
X5981700Y-1066800D03*
G01*
X6096000Y-1066800D03*
G01*
X4737100Y-1066800D03*
G01*
X4851400Y-1066800D03*
G01*
X4965700Y-1066800D03*
G01*
X5270500Y-749300D03*
G01*
X5384800Y-749300D03*
G01*
X5499100Y-749300D03*
G01*
X5270500Y457200D03*
G01*
X5384800Y457200D03*
G01*
X5499100Y457200D03*
G01*
X5270500Y787400D03*
G01*
X5384800Y787400D03*
G01*
X5499100Y787400D03*
D25*
G01*
X7073900Y419100D03*
G01*
X7579436Y1143000D03*
M02*
