G04 Layer: TopLayer*
G04 EasyEDA v6.5.40, 2025-03-19 11:18:00*
G04 e3f432f7db7c4c49a0c0585cfcba0d0d,10*
G04 Gerber Generator version 0.2*
G04 Scale: 100 percent, Rotated: No, Reflected: No *
G04 Dimensions in millimeters *
G04 leading zeros omitted , absolute positions ,4 integer and 5 decimal *
%FSLAX45Y45*%
%MOMM*%

%AMMACRO1*21,1,$1,$2,0,0,$3*%
%ADD10C,0.2540*%
%ADD11C,0.5000*%
%ADD12C,1.0000*%
%ADD13C,0.2600*%
%ADD14C,0.1650*%
%ADD15C,0.2400*%
%ADD16R,1.0000X1.4000*%
%ADD17R,1.0000X1.5500*%
%ADD18MACRO1,2.9997X1.0008X90.0000*%
%ADD19MACRO1,3.0023X1.0008X-90.0000*%
%ADD20MACRO1,2.9997X1.0008X0.0000*%
%ADD21R,0.8000X1.4000*%
%ADD22MACRO1,1.4986X1.4986X0.0000*%
%ADD23R,1.0000X1.0000*%
%ADD24R,1.5000X2.6000*%
%ADD25O,0.8999982X1.5999968*%
%ADD26R,0.9000X1.6000*%
%ADD27R,1.7000X1.7000*%
%ADD28C,1.7000*%
%ADD29C,2.0000*%
%ADD30C,1.1520*%
%ADD31C,0.6200*%
%ADD32C,0.6096*%
%ADD33C,0.6100*%
%ADD34C,0.0187*%

%LPD*%
G36*
X6221120Y261416D02*
G01*
X6217158Y262128D01*
X6213805Y264312D01*
X6211570Y267665D01*
X6210808Y271576D01*
X6210808Y363423D01*
X6211570Y367334D01*
X6213805Y370687D01*
X6217158Y372872D01*
X6221120Y373583D01*
X6224981Y372770D01*
X6228283Y370484D01*
X6236004Y362458D01*
X6245250Y355396D01*
X6255156Y350012D01*
X6255156Y387756D01*
X6220968Y387756D01*
X6217056Y388518D01*
X6213805Y390702D01*
X6211570Y394004D01*
X6210808Y397916D01*
X6210808Y440283D01*
X6211570Y444195D01*
X6213805Y447497D01*
X6217056Y449681D01*
X6220968Y450443D01*
X6255156Y450443D01*
X6255156Y462788D01*
X6256121Y467106D01*
X6258864Y470611D01*
X6262827Y472643D01*
X6267246Y472744D01*
X6277813Y470712D01*
X6289395Y470255D01*
X6292240Y470611D01*
X6296456Y470204D01*
X6300165Y468122D01*
X6302654Y464718D01*
X6303568Y460552D01*
X6304280Y301447D01*
X6303416Y297281D01*
X6300876Y293827D01*
X6297168Y291744D01*
X6292951Y291338D01*
X6289395Y291744D01*
X6277813Y291287D01*
X6266383Y289052D01*
X6255461Y285140D01*
X6245250Y279603D01*
X6236004Y272542D01*
X6228283Y264515D01*
X6224981Y262229D01*
G37*

%LPD*%
G36*
X3566668Y-1193292D02*
G01*
X3562756Y-1192530D01*
X3559505Y-1190294D01*
X3557270Y-1187043D01*
X3556508Y-1183132D01*
X3556508Y-1067409D01*
X3555695Y-1060907D01*
X3553612Y-1055370D01*
X3550056Y-1050239D01*
X3547059Y-1047191D01*
X3543452Y-1044549D01*
X3537915Y-1042060D01*
X3530447Y-1040892D01*
X3471316Y-1040892D01*
X3467455Y-1040130D01*
X3464204Y-1037945D01*
X3461969Y-1034745D01*
X3461156Y-1030884D01*
X3454552Y-582066D01*
X3455314Y-578104D01*
X3457549Y-574700D01*
X3460953Y-572465D01*
X3464966Y-571754D01*
X3586175Y-574903D01*
X3589832Y-575665D01*
X3592931Y-577748D01*
X3595115Y-580796D01*
X3596030Y-584403D01*
X3596741Y-595884D01*
X3599484Y-610819D01*
X3604006Y-625348D01*
X3610254Y-639216D01*
X3618077Y-652221D01*
X3627475Y-664159D01*
X3638194Y-674928D01*
X3650183Y-684326D01*
X3663187Y-692150D01*
X3677056Y-698398D01*
X3691585Y-702919D01*
X3706520Y-705662D01*
X3721709Y-706577D01*
X3736898Y-705662D01*
X3751834Y-702919D01*
X3766464Y-698347D01*
X3773779Y-695299D01*
X3795877Y-684377D01*
X3814064Y-673760D01*
X3842156Y-655523D01*
X3854500Y-648462D01*
X3866896Y-643026D01*
X3881120Y-638911D01*
X3899001Y-636168D01*
X3922471Y-635101D01*
X4028744Y-635101D01*
X4032656Y-635863D01*
X4035958Y-638098D01*
X4038142Y-641400D01*
X4038904Y-645261D01*
X4038904Y-653643D01*
X4039615Y-659942D01*
X4041546Y-665429D01*
X4042968Y-667715D01*
X4044340Y-671220D01*
X4044340Y-674979D01*
X4042968Y-678484D01*
X4041546Y-680770D01*
X4039615Y-686257D01*
X4038904Y-692556D01*
X4038904Y-831443D01*
X4039615Y-837742D01*
X4041546Y-843229D01*
X4044645Y-848106D01*
X4048709Y-852220D01*
X4053636Y-855268D01*
X4059072Y-857199D01*
X4065371Y-857910D01*
X4164279Y-857910D01*
X4170578Y-857199D01*
X4176014Y-855268D01*
X4180941Y-852220D01*
X4185005Y-848106D01*
X4188104Y-843229D01*
X4190034Y-837742D01*
X4190746Y-831443D01*
X4190746Y-823061D01*
X4191508Y-819200D01*
X4193692Y-815898D01*
X4196994Y-813663D01*
X4200906Y-812901D01*
X4251909Y-812901D01*
X4258005Y-814273D01*
X4263237Y-816356D01*
X4272686Y-818388D01*
X4282338Y-818845D01*
X4291888Y-817575D01*
X4301083Y-814781D01*
X4309719Y-810412D01*
X4317492Y-804672D01*
X4324146Y-797712D01*
X4329531Y-789736D01*
X4333544Y-780948D01*
X4335932Y-771601D01*
X4336796Y-762000D01*
X4335932Y-752398D01*
X4333544Y-743051D01*
X4329531Y-734263D01*
X4324146Y-726287D01*
X4317492Y-719328D01*
X4309719Y-713587D01*
X4301083Y-709218D01*
X4291888Y-706424D01*
X4282338Y-705154D01*
X4272686Y-705612D01*
X4263186Y-707644D01*
X4256024Y-710387D01*
X4252366Y-711098D01*
X4200906Y-711098D01*
X4196994Y-710336D01*
X4193692Y-708101D01*
X4191508Y-704799D01*
X4190746Y-700938D01*
X4190746Y-692556D01*
X4190034Y-686257D01*
X4188104Y-680770D01*
X4186682Y-678484D01*
X4185310Y-674979D01*
X4185310Y-671220D01*
X4186682Y-667715D01*
X4188104Y-665429D01*
X4190034Y-659942D01*
X4190746Y-653643D01*
X4190746Y-514756D01*
X4190034Y-508457D01*
X4188104Y-502970D01*
X4186682Y-500684D01*
X4185310Y-497179D01*
X4185310Y-493420D01*
X4186682Y-489915D01*
X4188104Y-487629D01*
X4190034Y-482142D01*
X4190746Y-475843D01*
X4190746Y-447751D01*
X4146194Y-447751D01*
X4146194Y-478129D01*
X4145381Y-482041D01*
X4143197Y-485292D01*
X4139895Y-487527D01*
X4136034Y-488289D01*
X4093616Y-488289D01*
X4089755Y-487527D01*
X4086453Y-485292D01*
X4084269Y-482041D01*
X4083456Y-478129D01*
X4083456Y-447751D01*
X4038904Y-447751D01*
X4038904Y-475843D01*
X4039615Y-482142D01*
X4041546Y-487629D01*
X4042968Y-489915D01*
X4044340Y-493420D01*
X4044340Y-497179D01*
X4042968Y-500684D01*
X4041546Y-502970D01*
X4039615Y-508457D01*
X4038904Y-514756D01*
X4038904Y-523138D01*
X4038142Y-526999D01*
X4035958Y-530301D01*
X4032656Y-532536D01*
X4028744Y-533298D01*
X3959860Y-533298D01*
X3955948Y-532536D01*
X3952697Y-530301D01*
X3950462Y-526999D01*
X3949700Y-523138D01*
X3949700Y-246125D01*
X3950258Y-242773D01*
X3951935Y-239826D01*
X3954475Y-237540D01*
X3958031Y-235305D01*
X3962095Y-231190D01*
X3965194Y-226314D01*
X3967073Y-220827D01*
X3967784Y-214528D01*
X3967784Y-115671D01*
X3967073Y-109372D01*
X3965194Y-103885D01*
X3962095Y-99009D01*
X3958031Y-94894D01*
X3954475Y-92659D01*
X3951935Y-90373D01*
X3950258Y-87426D01*
X3949700Y-84074D01*
X3949700Y104343D01*
X3950462Y108204D01*
X3952697Y111506D01*
X3955948Y113741D01*
X3959860Y114503D01*
X4764481Y114503D01*
X4771288Y114249D01*
X4776470Y113537D01*
X4782921Y111404D01*
X4800752Y102006D01*
X4806594Y99466D01*
X4816195Y96926D01*
X4826000Y96062D01*
X4835804Y96926D01*
X4845253Y99466D01*
X4854194Y103581D01*
X4862220Y109220D01*
X4869180Y116179D01*
X4874818Y124206D01*
X4878933Y133146D01*
X4881473Y142595D01*
X4882337Y152400D01*
X4881473Y162204D01*
X4878933Y171653D01*
X4874818Y180594D01*
X4869180Y188620D01*
X4862220Y195580D01*
X4854194Y201218D01*
X4845253Y205333D01*
X4835804Y207873D01*
X4826000Y208737D01*
X4816195Y207873D01*
X4806594Y205333D01*
X4800752Y202793D01*
X4781245Y192684D01*
X4778349Y191719D01*
X4770526Y190500D01*
X4764481Y190296D01*
X3959860Y190296D01*
X3955948Y191058D01*
X3952697Y193294D01*
X3950462Y196596D01*
X3949700Y200456D01*
X3949700Y497738D01*
X3950462Y501599D01*
X3952697Y504901D01*
X3955948Y507136D01*
X3959860Y507898D01*
X4028744Y507898D01*
X4032656Y507136D01*
X4035958Y504901D01*
X4038142Y501599D01*
X4038904Y497738D01*
X4038904Y489356D01*
X4039615Y483057D01*
X4041546Y477570D01*
X4042968Y475284D01*
X4044340Y471779D01*
X4044340Y468020D01*
X4042968Y464515D01*
X4041546Y462229D01*
X4039615Y456742D01*
X4038904Y450443D01*
X4038904Y422351D01*
X4083456Y422351D01*
X4083456Y452729D01*
X4084269Y456641D01*
X4086453Y459892D01*
X4089755Y462127D01*
X4093616Y462889D01*
X4136034Y462889D01*
X4139895Y462127D01*
X4143197Y459892D01*
X4145381Y456641D01*
X4146194Y452729D01*
X4146194Y422351D01*
X4190746Y422351D01*
X4190746Y450443D01*
X4190034Y456742D01*
X4188104Y462229D01*
X4186682Y464515D01*
X4185310Y468020D01*
X4185310Y471779D01*
X4186682Y475284D01*
X4188104Y477570D01*
X4190034Y483057D01*
X4190746Y489356D01*
X4190746Y628243D01*
X4190034Y634542D01*
X4188104Y640029D01*
X4186682Y642315D01*
X4185310Y645820D01*
X4185310Y649579D01*
X4186682Y653084D01*
X4188104Y655370D01*
X4190034Y660857D01*
X4190746Y667156D01*
X4190746Y675538D01*
X4191508Y679399D01*
X4193692Y682701D01*
X4196994Y684936D01*
X4200906Y685698D01*
X4239209Y685698D01*
X4245305Y684326D01*
X4250537Y682244D01*
X4259986Y680212D01*
X4269638Y679754D01*
X4279188Y681024D01*
X4288383Y683818D01*
X4297019Y688187D01*
X4304792Y693928D01*
X4311446Y700887D01*
X4316831Y708863D01*
X4320844Y717651D01*
X4323232Y726998D01*
X4324096Y736600D01*
X4323232Y746201D01*
X4320844Y755548D01*
X4316831Y764336D01*
X4311446Y772312D01*
X4304792Y779272D01*
X4297019Y785012D01*
X4288383Y789381D01*
X4279188Y792175D01*
X4269638Y793445D01*
X4259986Y792988D01*
X4250486Y790956D01*
X4243324Y788212D01*
X4239666Y787501D01*
X4200906Y787501D01*
X4196994Y788263D01*
X4193692Y790498D01*
X4191508Y793800D01*
X4190746Y797661D01*
X4190746Y806043D01*
X4190034Y812342D01*
X4188104Y817829D01*
X4185005Y822706D01*
X4180941Y826820D01*
X4176014Y829868D01*
X4170578Y831799D01*
X4164279Y832510D01*
X4065371Y832510D01*
X4059072Y831799D01*
X4053636Y829868D01*
X4048709Y826820D01*
X4044645Y822706D01*
X4041546Y817829D01*
X4039615Y812342D01*
X4038904Y806043D01*
X4038904Y667156D01*
X4039615Y660857D01*
X4041546Y655370D01*
X4042968Y653084D01*
X4044340Y649579D01*
X4044340Y645820D01*
X4042968Y642315D01*
X4041546Y640029D01*
X4039615Y634542D01*
X4038904Y628243D01*
X4038904Y619861D01*
X4038142Y616000D01*
X4035958Y612698D01*
X4032656Y610463D01*
X4028744Y609701D01*
X3922014Y609701D01*
X3899154Y610768D01*
X3881374Y613511D01*
X3867251Y617626D01*
X3853992Y623570D01*
X3842258Y630428D01*
X3813505Y649376D01*
X3794912Y660349D01*
X3775201Y670255D01*
X3772001Y671474D01*
X3766362Y674014D01*
X3751834Y678535D01*
X3736898Y681278D01*
X3721709Y682193D01*
X3706520Y681278D01*
X3691585Y678535D01*
X3677056Y674014D01*
X3663187Y667766D01*
X3650183Y659892D01*
X3638194Y650544D01*
X3627475Y639775D01*
X3618077Y627837D01*
X3610254Y614781D01*
X3604006Y600964D01*
X3599484Y586435D01*
X3596741Y571500D01*
X3595776Y555650D01*
X3594811Y551942D01*
X3592576Y548843D01*
X3589375Y546811D01*
X3585616Y546100D01*
X3464560Y546100D01*
X3460648Y546862D01*
X3457397Y549097D01*
X3455162Y552348D01*
X3454400Y556260D01*
X3454400Y1018032D01*
X3455162Y1021943D01*
X3457397Y1025194D01*
X3460648Y1027430D01*
X3464560Y1028192D01*
X3529990Y1028192D01*
X3536492Y1029004D01*
X3542029Y1031087D01*
X3547160Y1034643D01*
X3550208Y1037640D01*
X3552850Y1041247D01*
X3555339Y1046784D01*
X3556508Y1054252D01*
X3556508Y1183132D01*
X3557270Y1187043D01*
X3559505Y1190294D01*
X3562756Y1192530D01*
X3566668Y1193292D01*
X6290208Y1193292D01*
X6294069Y1192530D01*
X6297371Y1190345D01*
X6299606Y1187043D01*
X6300368Y1183182D01*
X6301130Y1013002D01*
X6300266Y1008837D01*
X6297726Y1005382D01*
X6294018Y1003300D01*
X6277813Y1002487D01*
X6266383Y1000252D01*
X6255461Y996340D01*
X6245250Y990803D01*
X6236004Y983742D01*
X6227978Y975360D01*
X6221272Y965860D01*
X6216142Y955446D01*
X6212636Y944371D01*
X6210858Y932891D01*
X6210858Y921308D01*
X6212636Y909828D01*
X6216142Y898753D01*
X6221272Y888339D01*
X6227978Y878840D01*
X6234023Y872540D01*
X6236309Y868730D01*
X6236766Y864260D01*
X6235242Y860044D01*
X6232093Y856894D01*
X6221831Y850442D01*
X6212890Y844143D01*
X6190488Y827176D01*
X6180988Y820369D01*
X6168796Y811987D01*
X6162090Y806500D01*
X6120790Y765200D01*
X6115354Y758596D01*
X6103010Y740105D01*
X6098946Y732536D01*
X6091123Y713638D01*
X6088938Y710336D01*
X6085636Y708152D01*
X6081776Y707390D01*
X6077864Y708152D01*
X6074562Y710336D01*
X6070092Y714806D01*
X6065215Y717905D01*
X6059728Y719785D01*
X6053429Y720496D01*
X5884570Y720496D01*
X5878271Y719785D01*
X5872784Y717905D01*
X5867908Y714806D01*
X5863793Y710692D01*
X5860694Y705815D01*
X5858814Y700328D01*
X5858103Y694029D01*
X5858103Y525170D01*
X5858814Y518871D01*
X5860694Y513384D01*
X5863793Y508508D01*
X5867908Y504393D01*
X5872784Y501294D01*
X5878271Y499414D01*
X5884570Y498703D01*
X6053429Y498703D01*
X6059728Y499414D01*
X6065215Y501294D01*
X6067247Y502564D01*
X6071260Y504037D01*
X6075578Y503732D01*
X6079337Y501650D01*
X6081877Y498195D01*
X6082792Y493979D01*
X6082792Y458114D01*
X6082588Y456133D01*
X6080302Y444601D01*
X6077762Y437997D01*
X6075629Y434797D01*
X6072530Y432612D01*
X6068822Y431749D01*
X6065062Y432308D01*
X6061659Y433527D01*
X6051143Y438556D01*
X6038646Y445109D01*
X6022848Y453034D01*
X6009386Y458825D01*
X6004102Y460806D01*
X5990183Y464464D01*
X5976112Y466242D01*
X5961888Y466242D01*
X5947816Y464464D01*
X5934049Y460857D01*
X5920892Y455523D01*
X5908497Y448513D01*
X5897118Y440029D01*
X5886907Y430174D01*
X5878068Y419049D01*
X5870702Y406908D01*
X5864961Y393903D01*
X5860897Y380288D01*
X5858611Y366268D01*
X5858154Y352044D01*
X5859526Y337921D01*
X5862675Y324053D01*
X5867603Y310692D01*
X5874156Y298094D01*
X5882284Y286461D01*
X5891834Y275945D01*
X5902655Y266750D01*
X5914593Y258978D01*
X5927394Y252831D01*
X5940856Y248361D01*
X5954826Y245617D01*
X5969000Y244703D01*
X5983173Y245617D01*
X5997143Y248361D01*
X6010605Y252831D01*
X6023610Y259079D01*
X6047536Y273812D01*
X6063945Y284835D01*
X6079286Y296570D01*
X6093002Y309321D01*
X6095492Y311912D01*
X6105448Y323748D01*
X6107531Y326542D01*
X6114999Y337718D01*
X6118047Y340715D01*
X6122111Y342138D01*
X6126378Y341782D01*
X6130137Y339699D01*
X6132677Y336245D01*
X6133592Y332079D01*
X6133592Y-21437D01*
X6133388Y-23418D01*
X6130747Y-36779D01*
X6130137Y-38709D01*
X6124956Y-51308D01*
X6123990Y-53035D01*
X6116421Y-64414D01*
X6115151Y-65938D01*
X6099403Y-81584D01*
X6091783Y-87731D01*
X6087770Y-89865D01*
X6084519Y-90678D01*
X6078931Y-89712D01*
X6077000Y-89001D01*
X6069584Y-85191D01*
X6059525Y-78689D01*
X6047587Y-70459D01*
X6033516Y-61366D01*
X6017209Y-52527D01*
X6003950Y-47142D01*
X5990183Y-43535D01*
X5976112Y-41757D01*
X5961888Y-41757D01*
X5947816Y-43535D01*
X5934049Y-47142D01*
X5920892Y-52476D01*
X5908497Y-59486D01*
X5897118Y-67970D01*
X5886907Y-77825D01*
X5878068Y-88950D01*
X5870702Y-101092D01*
X5864961Y-114096D01*
X5860897Y-127711D01*
X5858611Y-141732D01*
X5858154Y-155956D01*
X5859526Y-170078D01*
X5862675Y-183946D01*
X5867603Y-197307D01*
X5874156Y-209905D01*
X5882284Y-221538D01*
X5891834Y-232054D01*
X5902655Y-241249D01*
X5914593Y-249021D01*
X5927394Y-255168D01*
X5940856Y-259638D01*
X5954826Y-262382D01*
X5969000Y-263296D01*
X5983173Y-262382D01*
X5997143Y-259638D01*
X6010706Y-255168D01*
X6020003Y-250901D01*
X6039307Y-240487D01*
X6058712Y-228600D01*
X6073648Y-217678D01*
X6086652Y-206603D01*
X6098184Y-195326D01*
X6109106Y-183794D01*
X6136081Y-154635D01*
X6153607Y-136702D01*
X6172809Y-117500D01*
X6178245Y-110896D01*
X6190589Y-92405D01*
X6194653Y-84836D01*
X6199987Y-71882D01*
X6202121Y-68630D01*
X6205270Y-66446D01*
X6209030Y-65582D01*
X6212840Y-66192D01*
X6216142Y-68173D01*
X6218478Y-71272D01*
X6221272Y-76860D01*
X6227978Y-86360D01*
X6235852Y-94538D01*
X6237935Y-97790D01*
X6238646Y-101600D01*
X6237935Y-105410D01*
X6235852Y-108661D01*
X6227978Y-116839D01*
X6221272Y-126339D01*
X6216142Y-136753D01*
X6212636Y-147828D01*
X6210858Y-159308D01*
X6210858Y-170891D01*
X6212636Y-182372D01*
X6216142Y-193446D01*
X6221272Y-203860D01*
X6227978Y-213360D01*
X6235852Y-221538D01*
X6237935Y-224790D01*
X6238646Y-228600D01*
X6237935Y-232410D01*
X6235852Y-235661D01*
X6227978Y-243840D01*
X6221272Y-253339D01*
X6216142Y-263753D01*
X6212636Y-274828D01*
X6210858Y-286308D01*
X6210858Y-297891D01*
X6212636Y-309372D01*
X6216142Y-320446D01*
X6221272Y-330860D01*
X6227978Y-340360D01*
X6235852Y-348538D01*
X6237935Y-351790D01*
X6238646Y-355600D01*
X6237935Y-359410D01*
X6235852Y-362661D01*
X6227978Y-370840D01*
X6221272Y-380339D01*
X6216142Y-390753D01*
X6212636Y-401828D01*
X6210858Y-413308D01*
X6210858Y-424891D01*
X6212636Y-436372D01*
X6216142Y-447446D01*
X6221272Y-457860D01*
X6227978Y-467359D01*
X6235852Y-475538D01*
X6237935Y-478790D01*
X6238646Y-482600D01*
X6237935Y-486409D01*
X6235852Y-489661D01*
X6227978Y-497840D01*
X6221272Y-507339D01*
X6216142Y-517753D01*
X6212636Y-528828D01*
X6210858Y-540308D01*
X6210858Y-551891D01*
X6212636Y-563372D01*
X6216142Y-574446D01*
X6221272Y-584860D01*
X6227978Y-594360D01*
X6235852Y-602538D01*
X6237935Y-605790D01*
X6238646Y-609600D01*
X6237935Y-613410D01*
X6235852Y-616661D01*
X6227978Y-624840D01*
X6221272Y-634339D01*
X6216142Y-644753D01*
X6212636Y-655828D01*
X6210858Y-667308D01*
X6210858Y-678891D01*
X6212636Y-690372D01*
X6216142Y-701446D01*
X6221272Y-711860D01*
X6227978Y-721360D01*
X6235852Y-729538D01*
X6237935Y-732790D01*
X6238646Y-736600D01*
X6237935Y-740410D01*
X6235852Y-743661D01*
X6227978Y-751840D01*
X6221272Y-761339D01*
X6216142Y-771753D01*
X6212636Y-782828D01*
X6210858Y-794308D01*
X6210858Y-805891D01*
X6212636Y-817372D01*
X6216142Y-828446D01*
X6221272Y-838860D01*
X6227978Y-848360D01*
X6235852Y-856538D01*
X6237935Y-859790D01*
X6238646Y-863600D01*
X6237935Y-867410D01*
X6235852Y-870661D01*
X6227978Y-878840D01*
X6221272Y-888339D01*
X6216142Y-898753D01*
X6212636Y-909828D01*
X6210858Y-921308D01*
X6210858Y-932891D01*
X6212636Y-944371D01*
X6216142Y-955446D01*
X6221272Y-965860D01*
X6227978Y-975360D01*
X6236004Y-983742D01*
X6245250Y-990803D01*
X6255461Y-996340D01*
X6266434Y-1000302D01*
X6276187Y-1002284D01*
X6286042Y-1003452D01*
X6300571Y-1004417D01*
X6304280Y-1005332D01*
X6307328Y-1007567D01*
X6309360Y-1010767D01*
X6310071Y-1014476D01*
X6310833Y-1183081D01*
X6310071Y-1186992D01*
X6307886Y-1190294D01*
X6304584Y-1192530D01*
X6300673Y-1193292D01*
G37*

%LPC*%
G36*
X5219700Y-602437D02*
G01*
X5229504Y-601573D01*
X5238953Y-599033D01*
X5247894Y-594918D01*
X5255920Y-589280D01*
X5262880Y-582320D01*
X5268518Y-574294D01*
X5272633Y-565353D01*
X5275173Y-555904D01*
X5276037Y-546100D01*
X5275173Y-536295D01*
X5272633Y-526846D01*
X5268518Y-517906D01*
X5262880Y-509879D01*
X5255920Y-502920D01*
X5247944Y-497332D01*
X5237378Y-492556D01*
X5225592Y-488797D01*
X5217414Y-485952D01*
X5214823Y-484581D01*
X5208016Y-479551D01*
X5203545Y-475335D01*
X5050942Y-322732D01*
X5049672Y-321208D01*
X5042103Y-309829D01*
X5041138Y-308102D01*
X5035956Y-295503D01*
X5035346Y-293573D01*
X5032705Y-280212D01*
X5032502Y-278231D01*
X5032502Y849934D01*
X5033264Y853795D01*
X5035499Y857097D01*
X5038750Y859332D01*
X5042662Y860094D01*
X5068316Y860094D01*
X5074666Y860806D01*
X5080101Y862736D01*
X5085029Y865784D01*
X5089093Y869899D01*
X5092192Y874776D01*
X5094071Y880262D01*
X5094782Y886561D01*
X5094782Y1145438D01*
X5094071Y1151737D01*
X5092192Y1157224D01*
X5089093Y1162100D01*
X5085029Y1166215D01*
X5080101Y1169263D01*
X5074666Y1171194D01*
X5068316Y1171905D01*
X4919472Y1171905D01*
X4913122Y1171194D01*
X4907686Y1169263D01*
X4902758Y1166215D01*
X4898694Y1162100D01*
X4895596Y1157224D01*
X4893716Y1151737D01*
X4893005Y1145438D01*
X4893005Y1064768D01*
X4892192Y1060856D01*
X4890008Y1057605D01*
X4886706Y1055370D01*
X4882845Y1054608D01*
X3995978Y1054608D01*
X3992118Y1055370D01*
X3988815Y1057605D01*
X3986580Y1060856D01*
X3985818Y1064768D01*
X3985818Y1092911D01*
X3985107Y1099261D01*
X3983228Y1104696D01*
X3980129Y1109624D01*
X3976014Y1113688D01*
X3971137Y1116787D01*
X3965651Y1118717D01*
X3959351Y1119428D01*
X3860495Y1119428D01*
X3854196Y1118717D01*
X3848709Y1116787D01*
X3843832Y1113688D01*
X3839718Y1109624D01*
X3836619Y1104696D01*
X3834739Y1099261D01*
X3834028Y1092911D01*
X3834028Y939088D01*
X3834739Y932738D01*
X3836619Y927303D01*
X3839718Y922375D01*
X3843832Y918311D01*
X3848709Y915212D01*
X3854196Y913282D01*
X3860495Y912571D01*
X3959351Y912571D01*
X3965651Y913282D01*
X3971137Y915212D01*
X3976014Y918311D01*
X3980129Y922375D01*
X3983228Y927303D01*
X3985107Y932738D01*
X3985818Y939088D01*
X3985818Y967232D01*
X3986580Y971143D01*
X3988815Y974394D01*
X3992118Y976630D01*
X3995978Y977392D01*
X4882845Y977392D01*
X4886706Y976630D01*
X4890008Y974394D01*
X4892192Y971143D01*
X4893005Y967232D01*
X4893005Y886561D01*
X4893716Y880262D01*
X4895596Y874776D01*
X4898694Y869899D01*
X4902758Y865784D01*
X4907686Y862736D01*
X4913122Y860806D01*
X4919472Y860094D01*
X4945126Y860094D01*
X4949037Y859332D01*
X4952288Y857097D01*
X4954524Y853795D01*
X4955286Y849934D01*
X4955286Y-282549D01*
X4956149Y-291084D01*
X4960467Y-312877D01*
X4962956Y-321056D01*
X4971440Y-341630D01*
X4975504Y-349148D01*
X4987848Y-367690D01*
X4993284Y-374294D01*
X5149138Y-530148D01*
X5153812Y-535178D01*
X5157317Y-539699D01*
X5158638Y-541934D01*
X5161229Y-548182D01*
X5166664Y-565150D01*
X5170881Y-574294D01*
X5176520Y-582320D01*
X5183479Y-589280D01*
X5191506Y-594918D01*
X5200446Y-599033D01*
X5209895Y-601573D01*
G37*
G36*
X5920130Y-505714D02*
G01*
X5920130Y-455269D01*
X5869686Y-455269D01*
X5874156Y-463905D01*
X5882284Y-475538D01*
X5891834Y-486054D01*
X5902655Y-495249D01*
X5914593Y-503021D01*
G37*
G36*
X6017869Y-505714D02*
G01*
X6023406Y-503021D01*
X6035344Y-495249D01*
X6046165Y-486054D01*
X6055715Y-475538D01*
X6063843Y-463905D01*
X6068314Y-455269D01*
X6017869Y-455269D01*
G37*
G36*
X4038904Y-365048D02*
G01*
X4083456Y-365048D01*
X4083456Y-310489D01*
X4065371Y-310489D01*
X4059072Y-311200D01*
X4053636Y-313131D01*
X4048709Y-316179D01*
X4044645Y-320294D01*
X4041546Y-325170D01*
X4039615Y-330657D01*
X4038904Y-336956D01*
G37*
G36*
X4146194Y-365048D02*
G01*
X4190746Y-365048D01*
X4190746Y-336956D01*
X4190034Y-330657D01*
X4188104Y-325170D01*
X4185005Y-320294D01*
X4180941Y-316179D01*
X4176014Y-313131D01*
X4170578Y-311200D01*
X4164279Y-310489D01*
X4146194Y-310489D01*
G37*
G36*
X5869584Y-357530D02*
G01*
X5920130Y-357530D01*
X5920130Y-306933D01*
X5908497Y-313486D01*
X5897118Y-321970D01*
X5886907Y-331825D01*
X5878068Y-342950D01*
X5870702Y-355092D01*
G37*
G36*
X6017869Y-357530D02*
G01*
X6068415Y-357530D01*
X6067298Y-355092D01*
X6059932Y-342950D01*
X6051092Y-331825D01*
X6040882Y-321970D01*
X6029502Y-313486D01*
X6017869Y-306933D01*
G37*
G36*
X5363565Y-157022D02*
G01*
X5380075Y-156565D01*
X5396382Y-154228D01*
X5412333Y-150012D01*
X5427675Y-144068D01*
X5442254Y-136347D01*
X5455869Y-127050D01*
X5468315Y-116230D01*
X5479491Y-104089D01*
X5489194Y-90779D01*
X5497271Y-76403D01*
X5503722Y-61214D01*
X5508345Y-45415D01*
X5511139Y-29159D01*
X5512104Y-12700D01*
X5511139Y3759D01*
X5508345Y20015D01*
X5503722Y35814D01*
X5497271Y51003D01*
X5489194Y65379D01*
X5479491Y78689D01*
X5468315Y90830D01*
X5455869Y101650D01*
X5442254Y110947D01*
X5427675Y118668D01*
X5412333Y124612D01*
X5396382Y128828D01*
X5380075Y131165D01*
X5363565Y131622D01*
X5347157Y130200D01*
X5331002Y126949D01*
X5315305Y121869D01*
X5300319Y115011D01*
X5286197Y106476D01*
X5273141Y96418D01*
X5261305Y84937D01*
X5250891Y72186D01*
X5242001Y58318D01*
X5234686Y43484D01*
X5229148Y27990D01*
X5225440Y11938D01*
X5223560Y-4470D01*
X5223560Y-20929D01*
X5225440Y-37338D01*
X5229148Y-53390D01*
X5234686Y-68884D01*
X5242001Y-83718D01*
X5250891Y-97586D01*
X5261305Y-110337D01*
X5273141Y-121818D01*
X5286197Y-131876D01*
X5300319Y-140411D01*
X5315305Y-147269D01*
X5331002Y-152349D01*
X5347157Y-155600D01*
G37*
G36*
X5969000Y-9296D02*
G01*
X5983173Y-8382D01*
X5997143Y-5638D01*
X6010605Y-1168D01*
X6023406Y4978D01*
X6035344Y12750D01*
X6046165Y21945D01*
X6055715Y32461D01*
X6063843Y44094D01*
X6070396Y56692D01*
X6075324Y70053D01*
X6078474Y83921D01*
X6079845Y98044D01*
X6079388Y112268D01*
X6077102Y126288D01*
X6073089Y139903D01*
X6067298Y152908D01*
X6059932Y165049D01*
X6051092Y176174D01*
X6040882Y186029D01*
X6029502Y194513D01*
X6017107Y201523D01*
X6003950Y206857D01*
X5990183Y210464D01*
X5976112Y212242D01*
X5961888Y212242D01*
X5947816Y210464D01*
X5934049Y206857D01*
X5920892Y201523D01*
X5908497Y194513D01*
X5897118Y186029D01*
X5886907Y176174D01*
X5878068Y165049D01*
X5870702Y152908D01*
X5864961Y139903D01*
X5860897Y126288D01*
X5858611Y112268D01*
X5858154Y98044D01*
X5859526Y83921D01*
X5862675Y70053D01*
X5867603Y56692D01*
X5874156Y44094D01*
X5882284Y32461D01*
X5891834Y21945D01*
X5902655Y12750D01*
X5914593Y4978D01*
X5927394Y-1168D01*
X5940856Y-5638D01*
X5954826Y-8382D01*
G37*
G36*
X4065371Y285089D02*
G01*
X4083456Y285089D01*
X4083456Y339648D01*
X4038904Y339648D01*
X4038904Y311556D01*
X4039615Y305257D01*
X4041546Y299770D01*
X4044645Y294894D01*
X4048709Y290779D01*
X4053636Y287731D01*
X4059072Y285800D01*
G37*
G36*
X4146194Y285089D02*
G01*
X4164279Y285089D01*
X4170578Y285800D01*
X4176014Y287731D01*
X4180941Y290779D01*
X4185005Y294894D01*
X4188104Y299770D01*
X4190034Y305257D01*
X4190746Y311556D01*
X4190746Y339648D01*
X4146194Y339648D01*
G37*
G36*
X5269484Y860094D02*
G01*
X5418328Y860094D01*
X5424678Y860806D01*
X5430113Y862736D01*
X5435041Y865784D01*
X5439105Y869899D01*
X5442204Y874776D01*
X5444083Y880262D01*
X5444794Y886561D01*
X5444794Y966927D01*
X5445607Y970838D01*
X5447792Y974140D01*
X5451094Y976325D01*
X5454954Y977087D01*
X5573877Y977087D01*
X5583682Y976630D01*
X5586120Y976274D01*
X5589879Y974902D01*
X5592826Y972210D01*
X5594502Y968603D01*
X5596788Y959103D01*
X5601055Y948842D01*
X5606846Y939342D01*
X5614060Y930859D01*
X5622544Y923645D01*
X5632043Y917854D01*
X5642305Y913587D01*
X5653125Y910996D01*
X5664200Y910132D01*
X5675274Y910996D01*
X5686094Y913587D01*
X5696356Y917854D01*
X5705856Y923645D01*
X5714339Y930859D01*
X5719978Y937514D01*
X5723432Y940155D01*
X5727700Y941069D01*
X5731967Y940155D01*
X5735421Y937514D01*
X5741060Y930859D01*
X5749544Y923645D01*
X5759043Y917854D01*
X5769305Y913587D01*
X5780125Y910996D01*
X5791200Y910132D01*
X5802274Y910996D01*
X5813094Y913587D01*
X5823356Y917854D01*
X5832856Y923645D01*
X5835497Y925880D01*
X5839307Y927963D01*
X5843625Y928217D01*
X5847638Y926642D01*
X5850686Y923594D01*
X5852972Y919886D01*
X5857087Y915771D01*
X5861964Y912723D01*
X5867450Y910793D01*
X5873750Y910082D01*
X5889345Y910082D01*
X5889345Y969670D01*
X5872175Y969670D01*
X5868111Y970483D01*
X5864707Y972921D01*
X5862574Y976477D01*
X5862116Y981405D01*
X5862116Y1050594D01*
X5862574Y1055522D01*
X5864707Y1059078D01*
X5868111Y1061516D01*
X5872175Y1062329D01*
X5889345Y1062329D01*
X5889345Y1121918D01*
X5873750Y1121918D01*
X5867450Y1121206D01*
X5861964Y1119276D01*
X5857087Y1116228D01*
X5852972Y1112113D01*
X5850686Y1108405D01*
X5847638Y1105357D01*
X5843625Y1103782D01*
X5839307Y1104036D01*
X5835497Y1106119D01*
X5832856Y1108354D01*
X5823356Y1114145D01*
X5813094Y1118412D01*
X5802274Y1121003D01*
X5791200Y1121867D01*
X5780125Y1121003D01*
X5769305Y1118412D01*
X5759043Y1114145D01*
X5749544Y1108354D01*
X5741060Y1101140D01*
X5735421Y1094486D01*
X5731967Y1091844D01*
X5727700Y1090930D01*
X5723432Y1091844D01*
X5719978Y1094486D01*
X5714339Y1101140D01*
X5705856Y1108354D01*
X5696356Y1114145D01*
X5686094Y1118412D01*
X5675274Y1121003D01*
X5664200Y1121867D01*
X5653125Y1121003D01*
X5642305Y1118412D01*
X5632043Y1114145D01*
X5622544Y1108354D01*
X5614060Y1101140D01*
X5606846Y1092657D01*
X5601055Y1083157D01*
X5596788Y1072896D01*
X5594502Y1063396D01*
X5592826Y1059789D01*
X5589879Y1057097D01*
X5586120Y1055725D01*
X5582666Y1055268D01*
X5573420Y1054912D01*
X5454954Y1054912D01*
X5451094Y1055674D01*
X5447792Y1057859D01*
X5445607Y1061161D01*
X5444794Y1065072D01*
X5444794Y1145438D01*
X5444083Y1151737D01*
X5442204Y1157224D01*
X5439105Y1162100D01*
X5435041Y1166215D01*
X5430113Y1169263D01*
X5424678Y1171194D01*
X5418328Y1171905D01*
X5269484Y1171905D01*
X5263134Y1171194D01*
X5257698Y1169263D01*
X5252770Y1166215D01*
X5248706Y1162100D01*
X5245608Y1157224D01*
X5243728Y1151737D01*
X5243017Y1145438D01*
X5243017Y886561D01*
X5243728Y880262D01*
X5245608Y874776D01*
X5248706Y869899D01*
X5252770Y865784D01*
X5257698Y862736D01*
X5263134Y860806D01*
G37*
G36*
X5947054Y910082D02*
G01*
X5962650Y910082D01*
X5968949Y910793D01*
X5974435Y912723D01*
X5979312Y915771D01*
X5983427Y919886D01*
X5986475Y924763D01*
X5988405Y930249D01*
X5989116Y936548D01*
X5989116Y969670D01*
X5947054Y969670D01*
G37*
G36*
X3660495Y912571D02*
G01*
X3678580Y912571D01*
X3678580Y970889D01*
X3634028Y970889D01*
X3634028Y939088D01*
X3634740Y932738D01*
X3636619Y927303D01*
X3639718Y922375D01*
X3643833Y918311D01*
X3648710Y915212D01*
X3654196Y913282D01*
G37*
G36*
X3741267Y912571D02*
G01*
X3759352Y912571D01*
X3765651Y913282D01*
X3771137Y915212D01*
X3776014Y918311D01*
X3780129Y922375D01*
X3783228Y927303D01*
X3785108Y932738D01*
X3785819Y939088D01*
X3785819Y970889D01*
X3741267Y970889D01*
G37*
G36*
X3634028Y1061110D02*
G01*
X3678580Y1061110D01*
X3678580Y1119428D01*
X3660495Y1119428D01*
X3654196Y1118717D01*
X3648710Y1116787D01*
X3643833Y1113688D01*
X3639718Y1109624D01*
X3636619Y1104696D01*
X3634740Y1099261D01*
X3634028Y1092911D01*
G37*
G36*
X3741267Y1061110D02*
G01*
X3785819Y1061110D01*
X3785819Y1092911D01*
X3785108Y1099261D01*
X3783228Y1104696D01*
X3780129Y1109624D01*
X3776014Y1113688D01*
X3771137Y1116787D01*
X3765651Y1118717D01*
X3759352Y1119428D01*
X3741267Y1119428D01*
G37*
G36*
X5947054Y1062329D02*
G01*
X5989116Y1062329D01*
X5989116Y1095451D01*
X5988405Y1101750D01*
X5986475Y1107236D01*
X5983427Y1112113D01*
X5979312Y1116228D01*
X5974435Y1119276D01*
X5968949Y1121206D01*
X5962650Y1121918D01*
X5947054Y1121918D01*
G37*

%LPD*%
G36*
X3768445Y-492251D02*
G01*
X3671722Y-578967D01*
X3762095Y-672185D01*
X3782669Y-662076D01*
X3799789Y-652119D01*
X3828389Y-633526D01*
X3842207Y-625551D01*
X3857294Y-618845D01*
X3874770Y-613664D01*
X3895851Y-610362D01*
X3921658Y-609193D01*
X3921658Y-559206D01*
X3896461Y-558038D01*
X3875989Y-554634D01*
X3859022Y-549351D01*
X3844442Y-542442D01*
X3831183Y-534111D01*
X3803954Y-514400D01*
X3787800Y-503478D01*
G37*
G36*
X3763060Y647344D02*
G01*
X3671722Y555091D01*
X3767531Y467410D01*
X3787089Y478485D01*
X3803396Y489254D01*
X3830777Y508812D01*
X3844137Y517093D01*
X3858768Y524001D01*
X3875836Y529285D01*
X3896410Y532638D01*
X3921658Y533806D01*
X3921658Y583793D01*
X3895953Y584962D01*
X3874973Y588314D01*
X3857548Y593496D01*
X3842562Y600252D01*
X3828796Y608279D01*
X3800398Y627024D01*
X3783431Y637133D01*
G37*
G36*
X5368493Y1061008D02*
G01*
X5321706Y1016000D01*
X5368493Y970991D01*
X5378450Y976274D01*
X5386781Y981456D01*
X5400751Y990904D01*
X5407507Y994918D01*
X5414975Y998219D01*
X5423560Y1000810D01*
X5433974Y1002436D01*
X5446674Y1002995D01*
X5446674Y1029004D01*
X5433974Y1029563D01*
X5423560Y1031189D01*
X5414975Y1033780D01*
X5407507Y1037082D01*
X5400751Y1041095D01*
X5386781Y1050544D01*
X5378450Y1055725D01*
G37*
G36*
X6308293Y-247091D02*
G01*
X6261506Y-292100D01*
X6308293Y-337108D01*
X6318250Y-331774D01*
X6326581Y-326593D01*
X6340551Y-317042D01*
X6347358Y-313029D01*
X6354724Y-309626D01*
X6363360Y-307035D01*
X6373774Y-305358D01*
X6386474Y-304800D01*
X6386474Y-279400D01*
X6373774Y-278841D01*
X6363360Y-277164D01*
X6354724Y-274574D01*
X6347358Y-271170D01*
X6340551Y-267157D01*
X6326581Y-257606D01*
X6318250Y-252425D01*
G37*
G36*
X5644591Y1056487D02*
G01*
X5635701Y1051814D01*
X5628284Y1047343D01*
X5615635Y1039215D01*
X5609488Y1035812D01*
X5602732Y1032967D01*
X5594959Y1030833D01*
X5585612Y1029462D01*
X5574182Y1029004D01*
X5574182Y1002995D01*
X5585612Y1002537D01*
X5594959Y1001166D01*
X5602732Y999032D01*
X5609488Y996187D01*
X5615635Y992784D01*
X5628284Y984656D01*
X5635701Y980186D01*
X5644591Y975512D01*
X5686704Y1016000D01*
G37*
G36*
X6308293Y-120091D02*
G01*
X6261506Y-165100D01*
X6308293Y-210108D01*
X6318250Y-204774D01*
X6326581Y-199593D01*
X6340551Y-190042D01*
X6347358Y-186029D01*
X6354724Y-182626D01*
X6363360Y-180035D01*
X6373774Y-178358D01*
X6386474Y-177800D01*
X6386474Y-152400D01*
X6373774Y-151841D01*
X6363360Y-150164D01*
X6354724Y-147574D01*
X6347358Y-144170D01*
X6340551Y-140157D01*
X6326581Y-130606D01*
X6318250Y-125425D01*
G37*
G36*
X6308293Y6908D02*
G01*
X6261506Y-38100D01*
X6308293Y-83108D01*
X6318250Y-77774D01*
X6326581Y-72593D01*
X6340551Y-63042D01*
X6347358Y-59029D01*
X6354724Y-55626D01*
X6363360Y-53035D01*
X6373774Y-51358D01*
X6386474Y-50800D01*
X6386474Y-25400D01*
X6373774Y-24841D01*
X6363360Y-23164D01*
X6354724Y-20574D01*
X6347358Y-17170D01*
X6340551Y-13157D01*
X6326581Y-3606D01*
X6318250Y1574D01*
G37*
G36*
X6577990Y827532D02*
G01*
X6558686Y817676D01*
X6554368Y816000D01*
X6549644Y814628D01*
X6544259Y813612D01*
X6537959Y813003D01*
X6530340Y812800D01*
X6530340Y787400D01*
X6537959Y787196D01*
X6544259Y786587D01*
X6549644Y785571D01*
X6554368Y784199D01*
X6558686Y782523D01*
X6577990Y772668D01*
X6606540Y800100D01*
G37*
G36*
X6617309Y344932D02*
G01*
X6588759Y317500D01*
X6617309Y290068D01*
X6636613Y299923D01*
X6640931Y301599D01*
X6645656Y302971D01*
X6651040Y303987D01*
X6657340Y304596D01*
X6664959Y304800D01*
X6664959Y330200D01*
X6657340Y330403D01*
X6651040Y331012D01*
X6645656Y332028D01*
X6640931Y333400D01*
X6636613Y335076D01*
G37*
G36*
X6264198Y844854D02*
G01*
X6252921Y838962D01*
X6243574Y833628D01*
X6235649Y828548D01*
X6221628Y818337D01*
X6205931Y806399D01*
X6196025Y799236D01*
X6183934Y790956D01*
X6198057Y769823D01*
X6206998Y774750D01*
X6214973Y777087D01*
X6222187Y777240D01*
X6228943Y775614D01*
X6235547Y772617D01*
X6256731Y759358D01*
X6265214Y754837D01*
X6311493Y800404D01*
G37*
G36*
X6308293Y845108D02*
G01*
X6261506Y800100D01*
X6308293Y755091D01*
X6318250Y760425D01*
X6326581Y765606D01*
X6340551Y775157D01*
X6347358Y779170D01*
X6354724Y782574D01*
X6363360Y785164D01*
X6373774Y786841D01*
X6386474Y787400D01*
X6386474Y812800D01*
X6373774Y813358D01*
X6363360Y815035D01*
X6354724Y817625D01*
X6347358Y821029D01*
X6340551Y825042D01*
X6326581Y834593D01*
X6318250Y839774D01*
G37*
G36*
X5998870Y435152D02*
G01*
X5926683Y351688D01*
X6012942Y282803D01*
X6032957Y295198D01*
X6049670Y306425D01*
X6063640Y317246D01*
X6075476Y328371D01*
X6085840Y340664D01*
X6095288Y354838D01*
X6104432Y371703D01*
X6113932Y391922D01*
X6124346Y416356D01*
X6100876Y426110D01*
X6093612Y413410D01*
X6084976Y406349D01*
X6075121Y403910D01*
X6064199Y405180D01*
X6052362Y409295D01*
X6039764Y415239D01*
X6026556Y422198D01*
X6012840Y429107D01*
G37*
G36*
X6330035Y-648462D02*
G01*
X6265926Y-658876D01*
X6278829Y-722528D01*
X6289395Y-723747D01*
X6314897Y-725220D01*
X6322314Y-726389D01*
X6329629Y-728624D01*
X6337198Y-732282D01*
X6345224Y-737920D01*
X6354013Y-745845D01*
X6371945Y-727913D01*
X6362801Y-717905D01*
X6356045Y-708964D01*
X6351219Y-700735D01*
X6347714Y-692861D01*
X6344920Y-685088D01*
X6339382Y-668477D01*
X6335471Y-659079D01*
G37*
G36*
X6268821Y-782421D02*
G01*
X6270091Y-847344D01*
X6280912Y-850646D01*
X6290462Y-852830D01*
X6307074Y-855980D01*
X6314744Y-857910D01*
X6322364Y-860755D01*
X6330289Y-865022D01*
X6338824Y-871169D01*
X6348222Y-879805D01*
X6366205Y-861821D01*
X6357569Y-852424D01*
X6351422Y-843889D01*
X6347155Y-835964D01*
X6344310Y-828344D01*
X6342380Y-820674D01*
X6339230Y-804062D01*
X6337046Y-794512D01*
X6333744Y-783691D01*
G37*
G36*
X6264706Y591108D02*
G01*
X6234074Y576376D01*
X6226149Y572109D01*
X6218529Y567436D01*
X6210858Y561949D01*
X6202629Y555193D01*
X6193383Y546811D01*
X6182614Y536397D01*
X6200597Y518414D01*
X6208115Y524408D01*
X6215176Y527151D01*
X6221882Y527151D01*
X6228486Y524967D01*
X6235039Y521208D01*
X6248908Y511048D01*
X6256477Y505764D01*
X6264706Y501091D01*
X6311493Y546100D01*
G37*
G36*
X6308293Y591108D02*
G01*
X6261506Y546100D01*
X6308293Y501091D01*
X6318250Y506425D01*
X6326581Y511606D01*
X6340551Y521157D01*
X6347358Y525170D01*
X6354724Y528574D01*
X6363360Y531164D01*
X6373774Y532841D01*
X6386474Y533400D01*
X6386474Y558800D01*
X6373774Y559358D01*
X6363360Y561035D01*
X6354724Y563626D01*
X6347358Y567029D01*
X6340551Y571042D01*
X6326581Y580593D01*
X6318250Y585774D01*
G37*
G36*
X6004610Y-75234D02*
G01*
X5926531Y-153212D01*
X6007455Y-228193D01*
X6027318Y-217525D01*
X6043422Y-207670D01*
X6056782Y-198069D01*
X6068364Y-188214D01*
X6079236Y-177698D01*
X6117285Y-136855D01*
X6135166Y-118516D01*
X6117183Y-100533D01*
X6104128Y-111150D01*
X6091834Y-116281D01*
X6080150Y-116839D01*
X6068669Y-113792D01*
X6057138Y-108000D01*
X6045301Y-100330D01*
X6032754Y-91744D01*
X6019292Y-83058D01*
G37*
G36*
X6308293Y718108D02*
G01*
X6261506Y673100D01*
X6308293Y628091D01*
X6318250Y633425D01*
X6326581Y638606D01*
X6340551Y648157D01*
X6347358Y652170D01*
X6354724Y655574D01*
X6363360Y658164D01*
X6373774Y659841D01*
X6386474Y660400D01*
X6386474Y685800D01*
X6373774Y686358D01*
X6363360Y688035D01*
X6354724Y690626D01*
X6347358Y694029D01*
X6340551Y698042D01*
X6326581Y707593D01*
X6318250Y712774D01*
G37*
G36*
X4969306Y1061008D02*
G01*
X4959350Y1055674D01*
X4951018Y1050493D01*
X4937048Y1040942D01*
X4930241Y1036929D01*
X4922875Y1033526D01*
X4914239Y1030935D01*
X4903825Y1029258D01*
X4891125Y1028700D01*
X4891125Y1003300D01*
X4903825Y1002741D01*
X4914239Y1001064D01*
X4922875Y998474D01*
X4930241Y995070D01*
X4937048Y991057D01*
X4951018Y981506D01*
X4959350Y976325D01*
X4969306Y970991D01*
X5016093Y1016000D01*
G37*
G36*
X4989677Y1040942D02*
G01*
X4947412Y991717D01*
X4953152Y982218D01*
X4958689Y974293D01*
X4968646Y960932D01*
X4972812Y954328D01*
X4976317Y947115D01*
X4978908Y938733D01*
X4980584Y928573D01*
X4981194Y916076D01*
X5006594Y916076D01*
X5007152Y929081D01*
X5008829Y939698D01*
X5011318Y948486D01*
X5014620Y956106D01*
X5018532Y963117D01*
X5027574Y977646D01*
X5032400Y986332D01*
X5037226Y996746D01*
G37*
G36*
X5185562Y-494030D02*
G01*
X5167630Y-511962D01*
X5172811Y-517499D01*
X5176875Y-522427D01*
X5179974Y-526897D01*
X5182362Y-531215D01*
X5184190Y-535482D01*
X5190896Y-556107D01*
X5230469Y-556869D01*
X5229707Y-517296D01*
X5209082Y-510590D01*
X5204815Y-508762D01*
X5200497Y-506374D01*
X5196027Y-503275D01*
X5191099Y-499262D01*
G37*
G36*
X6308293Y-501091D02*
G01*
X6261506Y-546100D01*
X6308293Y-591108D01*
X6318250Y-585774D01*
X6326581Y-580593D01*
X6340551Y-571042D01*
X6347358Y-567029D01*
X6354724Y-563626D01*
X6363360Y-561035D01*
X6373774Y-559358D01*
X6386474Y-558800D01*
X6386474Y-533400D01*
X6373774Y-532841D01*
X6363360Y-531164D01*
X6354724Y-528574D01*
X6347358Y-525170D01*
X6340551Y-521157D01*
X6326581Y-511606D01*
X6318250Y-506425D01*
G37*
G36*
X4812690Y179832D02*
G01*
X4793335Y169621D01*
X4789017Y167843D01*
X4784344Y166370D01*
X4779010Y165303D01*
X4772660Y164642D01*
X4765040Y164388D01*
X4765040Y140411D01*
X4772660Y140157D01*
X4779010Y139496D01*
X4784344Y138430D01*
X4789017Y136956D01*
X4793335Y135178D01*
X4812690Y124968D01*
X4841240Y152400D01*
G37*
G36*
X6308293Y133908D02*
G01*
X6261506Y88900D01*
X6308293Y43891D01*
X6318707Y49276D01*
X6327292Y54305D01*
X6341668Y63347D01*
X6348577Y67411D01*
X6356146Y71221D01*
X6364884Y74676D01*
X6375501Y77927D01*
X6388557Y80924D01*
X6383578Y105816D01*
X6371640Y104241D01*
X6361785Y104444D01*
X6353505Y106273D01*
X6346291Y109321D01*
X6339586Y113385D01*
X6325870Y123342D01*
X6317843Y128676D01*
G37*
G36*
X3879189Y-396798D02*
G01*
X3878986Y-403758D01*
X3878275Y-409549D01*
X3877157Y-414528D01*
X3875633Y-418795D01*
X3873652Y-422656D01*
X3871264Y-426415D01*
X3861714Y-439013D01*
X3883355Y-472185D01*
X3915613Y-449275D01*
X3911904Y-437083D01*
X3908653Y-427380D01*
X3907282Y-422656D01*
X3906164Y-417525D01*
X3905300Y-411734D01*
X3904792Y-404926D01*
X3904589Y-396798D01*
G37*
G36*
X6330035Y-902462D02*
G01*
X6265926Y-912876D01*
X6278829Y-976528D01*
X6289395Y-977747D01*
X6314897Y-979220D01*
X6322314Y-980389D01*
X6329629Y-982624D01*
X6337198Y-986282D01*
X6345224Y-991920D01*
X6354013Y-999845D01*
X6371945Y-981913D01*
X6362801Y-971905D01*
X6356045Y-962964D01*
X6351219Y-954735D01*
X6347714Y-946861D01*
X6344920Y-939088D01*
X6339382Y-922477D01*
X6335471Y-913079D01*
G37*
G36*
X7060387Y446989D02*
G01*
X7056729Y445566D01*
X7052818Y444550D01*
X7048500Y443992D01*
X7043826Y443687D01*
X7011924Y444093D01*
X7011924Y394106D01*
X7043826Y394512D01*
X7048500Y394208D01*
X7052818Y393649D01*
X7056729Y392633D01*
X7060387Y391210D01*
X7089394Y419100D01*
G37*
G36*
X3820312Y808228D02*
G01*
X3801008Y798525D01*
X3796690Y796848D01*
X3791965Y795528D01*
X3786581Y794562D01*
X3780231Y794004D01*
X3772662Y793800D01*
X3772662Y767791D01*
X3780231Y767588D01*
X3786581Y767029D01*
X3791965Y766064D01*
X3796690Y764743D01*
X3801008Y763066D01*
X3820312Y753364D01*
X3848862Y780796D01*
G37*
G36*
X3750919Y808228D02*
G01*
X3722370Y780796D01*
X3750919Y753364D01*
X3770172Y763066D01*
X3774541Y764743D01*
X3779265Y766064D01*
X3784650Y767029D01*
X3791000Y767588D01*
X3798570Y767791D01*
X3798570Y793800D01*
X3791000Y794004D01*
X3784650Y794562D01*
X3779265Y795528D01*
X3774541Y796848D01*
X3770172Y798525D01*
G37*
G36*
X3724300Y808228D02*
G01*
X3705047Y798525D01*
X3700678Y796848D01*
X3695954Y795528D01*
X3690569Y794562D01*
X3684219Y794004D01*
X3676650Y793800D01*
X3676650Y767791D01*
X3684219Y767588D01*
X3690569Y767029D01*
X3695954Y766064D01*
X3700678Y764743D01*
X3705047Y763066D01*
X3724300Y753364D01*
X3752850Y780796D01*
G37*
G36*
X3628593Y841756D02*
G01*
X3628390Y834186D01*
X3627831Y827836D01*
X3626865Y822452D01*
X3625545Y817727D01*
X3623868Y813358D01*
X3614165Y794105D01*
X3641598Y765556D01*
X3669029Y794105D01*
X3659327Y813358D01*
X3657650Y817727D01*
X3656329Y822452D01*
X3655364Y827836D01*
X3654806Y834186D01*
X3654602Y841756D01*
G37*
G36*
X3654907Y808228D02*
G01*
X3626358Y780796D01*
X3654907Y753364D01*
X3674160Y763066D01*
X3678529Y764743D01*
X3683254Y766064D01*
X3688638Y767029D01*
X3694988Y767588D01*
X3702558Y767791D01*
X3702558Y793800D01*
X3694988Y794004D01*
X3688638Y794562D01*
X3683254Y795528D01*
X3678529Y796848D01*
X3674160Y798525D01*
G37*
G36*
X8014309Y1043432D02*
G01*
X7985759Y1016000D01*
X8014309Y988568D01*
X8017662Y989888D01*
X8021370Y990752D01*
X8025587Y991260D01*
X8035391Y991514D01*
X8061959Y991006D01*
X8061959Y1040993D01*
X8035391Y1040485D01*
X8025587Y1040739D01*
X8021370Y1041247D01*
X8017662Y1042111D01*
G37*
G36*
X8001000Y1031240D02*
G01*
X7973568Y1002690D01*
X7974888Y999337D01*
X7975752Y995629D01*
X7976260Y991412D01*
X7976514Y981608D01*
X7976006Y955040D01*
X8025993Y955040D01*
X8025485Y981608D01*
X8025739Y991412D01*
X8026247Y995629D01*
X8027111Y999337D01*
X8028431Y1002690D01*
G37*
G36*
X8344509Y27432D02*
G01*
X8315959Y0D01*
X8344509Y-27432D01*
X8362848Y-17373D01*
X8367014Y-15646D01*
X8371484Y-14427D01*
X8376513Y-13919D01*
X8382406Y-14071D01*
X8389416Y-15138D01*
X8394395Y9753D01*
X8379866Y12954D01*
X8369401Y16103D01*
X8360409Y19761D01*
G37*
G36*
X6308293Y464108D02*
G01*
X6261506Y419100D01*
X6308293Y374091D01*
X6325209Y382320D01*
X6332524Y385521D01*
X6339586Y388213D01*
X6346850Y390398D01*
X6354724Y392023D01*
X6363716Y393192D01*
X6374130Y393903D01*
X6386474Y394106D01*
X6386474Y444093D01*
X6374130Y444296D01*
X6363716Y445008D01*
X6354724Y446176D01*
X6346850Y447801D01*
X6339586Y449986D01*
X6332524Y452678D01*
X6325209Y455879D01*
G37*
G36*
X7593279Y1170736D02*
G01*
X7563967Y1143152D01*
X7592618Y1114958D01*
X7595768Y1116228D01*
X7599172Y1117244D01*
X7602931Y1117904D01*
X7606995Y1118260D01*
X7611465Y1118260D01*
X7616342Y1117854D01*
X7621676Y1116990D01*
X7627467Y1115720D01*
X7633766Y1113993D01*
X7648295Y1161846D01*
X7639761Y1164082D01*
X7631988Y1165504D01*
X7624876Y1166418D01*
X7612380Y1167231D01*
X7602016Y1168146D01*
X7597444Y1169111D01*
G37*
G36*
X7565948Y1170889D02*
G01*
X7562291Y1169466D01*
X7558328Y1168450D01*
X7554061Y1167892D01*
X7549337Y1167587D01*
X7517434Y1167993D01*
X7517434Y1118006D01*
X7549337Y1118412D01*
X7554061Y1118108D01*
X7558328Y1117549D01*
X7562291Y1116533D01*
X7565948Y1115110D01*
X7594955Y1143000D01*
G37*
G36*
X4266387Y-734110D02*
G01*
X4262729Y-735533D01*
X4258818Y-736549D01*
X4254500Y-737108D01*
X4249826Y-737412D01*
X4217924Y-737006D01*
X4217924Y-786993D01*
X4249826Y-786587D01*
X4254500Y-786892D01*
X4258818Y-787450D01*
X4262729Y-788466D01*
X4266387Y-789889D01*
X4295394Y-762000D01*
G37*
G36*
X4253687Y764489D02*
G01*
X4250029Y763066D01*
X4246118Y762050D01*
X4241800Y761492D01*
X4237126Y761187D01*
X4205224Y761593D01*
X4205224Y711606D01*
X4237126Y712012D01*
X4241800Y711708D01*
X4246118Y711149D01*
X4250029Y710133D01*
X4253687Y708710D01*
X4282694Y736600D01*
G37*
G36*
X6718350Y1114907D02*
G01*
X6699910Y1095756D01*
X6692798Y1088999D01*
X6689496Y1086408D01*
X6686194Y1084376D01*
X6682892Y1082903D01*
X6682130Y1043330D01*
X6721703Y1044092D01*
X6723176Y1047394D01*
X6725208Y1050696D01*
X6727799Y1053998D01*
X6734556Y1061110D01*
X6753707Y1079550D01*
G37*
G36*
X6703669Y1064869D02*
G01*
X6664096Y1064107D01*
X6662623Y1060805D01*
X6660591Y1057503D01*
X6658000Y1054201D01*
X6651244Y1047089D01*
X6632092Y1028649D01*
X6667449Y993292D01*
X6685889Y1012444D01*
X6693001Y1019200D01*
X6696303Y1021791D01*
X6699605Y1023823D01*
X6702907Y1025296D01*
G37*
G36*
X7416190Y1170432D02*
G01*
X7412837Y1169111D01*
X7409129Y1168247D01*
X7404912Y1167739D01*
X7395108Y1167485D01*
X7368540Y1167993D01*
X7368540Y1118006D01*
X7395108Y1118514D01*
X7404912Y1118260D01*
X7409129Y1117752D01*
X7412837Y1116888D01*
X7416190Y1115568D01*
X7444740Y1143000D01*
G37*
G36*
X7442809Y1170432D02*
G01*
X7414259Y1143000D01*
X7442809Y1115568D01*
X7446162Y1116888D01*
X7449870Y1117752D01*
X7454087Y1118260D01*
X7463891Y1118514D01*
X7490459Y1118006D01*
X7490459Y1167993D01*
X7463891Y1167485D01*
X7454087Y1167739D01*
X7449870Y1168247D01*
X7446162Y1169111D01*
G37*
G36*
X6308293Y972108D02*
G01*
X6261506Y927100D01*
X6308293Y882091D01*
X6325209Y890320D01*
X6332524Y893521D01*
X6339586Y896213D01*
X6346850Y898398D01*
X6354724Y900023D01*
X6363716Y901192D01*
X6374130Y901903D01*
X6386474Y902106D01*
X6386474Y952093D01*
X6374130Y952296D01*
X6363716Y953008D01*
X6354724Y954176D01*
X6346850Y955802D01*
X6339586Y957986D01*
X6332524Y960678D01*
X6325209Y963879D01*
G37*
D10*
X6871568Y-457220D02*
G01*
X6871568Y-469925D01*
X6871568Y-203220D02*
G01*
X6871568Y-215925D01*
X6871568Y-76220D02*
G01*
X6871568Y-88925D01*
X6871568Y50779D02*
G01*
X6871568Y38074D01*
X6871568Y177779D02*
G01*
X6871568Y165074D01*
D11*
X8001000Y1016000D02*
G01*
X8078490Y1016000D01*
D10*
X3886200Y-457200D02*
G01*
X3891892Y-451507D01*
X3891892Y-165100D01*
D11*
X3721709Y-580694D02*
G01*
X3725214Y-584200D01*
X4114825Y-584200D01*
X4114825Y558800D02*
G01*
X3724193Y558800D01*
X3721707Y556313D01*
X4279900Y-762000D02*
G01*
X4114825Y-762000D01*
X4267200Y736600D02*
G01*
X4114825Y736600D01*
D12*
X3651910Y-165100D02*
G01*
X3505027Y-165100D01*
X3505027Y-165813D01*
X3671824Y152400D02*
G01*
X3671824Y139700D01*
X3505200Y139700D01*
D11*
X7429500Y1143000D02*
G01*
X6837205Y1143000D01*
X6822366Y1141539D01*
X6807741Y1138628D01*
X6793473Y1134300D01*
X6779696Y1128595D01*
X6766547Y1121564D01*
X6754149Y1113281D01*
X6742623Y1103823D01*
X6692900Y1054100D01*
D13*
X5343906Y1016000D02*
G01*
X5499100Y1016000D01*
X5664200Y1016000D01*
D10*
X5969000Y-152400D02*
G01*
X6046053Y-152400D01*
X6068844Y-147866D01*
X6090315Y-138973D01*
X6109637Y-126062D01*
X6145862Y-89837D01*
X6158773Y-70515D01*
X6167666Y-49044D01*
X6172200Y-26253D01*
X6172200Y487464D01*
X6174699Y500032D01*
X6179601Y511868D01*
X6186721Y522521D01*
X6195778Y531578D01*
X6206431Y538698D01*
X6218267Y543600D01*
X6230835Y546100D01*
X6286500Y546100D01*
X5969000Y355600D02*
G01*
X6024018Y355600D01*
X6044752Y359724D01*
X6064280Y367812D01*
X6081857Y379557D01*
X6097198Y394898D01*
X6109063Y412653D01*
X6117234Y432381D01*
X6121400Y453323D01*
X6121400Y673953D01*
X6125933Y696744D01*
X6134826Y718215D01*
X6147737Y737537D01*
X6189764Y779564D01*
X6204831Y789632D01*
X6221569Y796564D01*
X6239339Y800100D01*
X6286500Y800100D01*
X6871568Y-444525D02*
G01*
X6884263Y-444525D01*
X6871568Y-457220D01*
X6871568Y-444525D01*
X6565021Y-444525D01*
X6542229Y-449059D01*
X6520759Y-457951D01*
X6501437Y-470862D01*
X6452537Y-519762D01*
X6433215Y-532673D01*
X6411744Y-541566D01*
X6388953Y-546100D01*
X6286500Y-546100D01*
X6871568Y-190525D02*
G01*
X6884263Y-190525D01*
X6871568Y-203220D01*
X6871568Y-190525D01*
X6653921Y-190525D01*
X6631129Y-195059D01*
X6609659Y-203951D01*
X6590337Y-216862D01*
X6541437Y-265762D01*
X6522115Y-278673D01*
X6500644Y-287566D01*
X6477853Y-292100D01*
X6286500Y-292100D01*
X6871568Y-63525D02*
G01*
X6871568Y-63525D01*
X6884263Y-63525D01*
X6871568Y-76220D01*
X6871568Y-63525D01*
X6590421Y-63525D01*
X6567629Y-68059D01*
X6546159Y-76951D01*
X6526837Y-89862D01*
X6477937Y-138762D01*
X6458615Y-151673D01*
X6437144Y-160566D01*
X6414353Y-165100D01*
X6286500Y-165100D01*
X6871568Y63474D02*
G01*
X6884263Y63474D01*
X6871568Y50779D01*
X6871568Y63474D01*
X6565021Y63474D01*
X6542229Y58940D01*
X6520759Y50048D01*
X6501437Y37137D01*
X6452537Y-11762D01*
X6433215Y-24673D01*
X6411744Y-33566D01*
X6388953Y-38100D01*
X6286500Y-38100D01*
X6871568Y190474D02*
G01*
X6884263Y190474D01*
X6871568Y177779D01*
X6871568Y190474D01*
X6539621Y190474D01*
X6516829Y185940D01*
X6495359Y177048D01*
X6476037Y164137D01*
X6427137Y115237D01*
X6407815Y102326D01*
X6386344Y93433D01*
X6363553Y88900D01*
X6286500Y88900D01*
D14*
X8166201Y-1054100D02*
G01*
X7948599Y-1054100D01*
X7935899Y-1066800D01*
X7735900Y-1066800D02*
G01*
X7746161Y-1056538D01*
X7746161Y-707009D01*
D10*
X3909999Y1016000D02*
G01*
X4993893Y1016000D01*
D11*
X6692900Y1054100D02*
G01*
X6611104Y972304D01*
X6597804Y961389D01*
X6583499Y951831D01*
X6568325Y943721D01*
X6552430Y937138D01*
X6535968Y932141D01*
X6519092Y928786D01*
X6501973Y927100D01*
X6286500Y927100D01*
D13*
X3618072Y906365D02*
G01*
X3618072Y886874D01*
X3632951Y871994D01*
X3641597Y851120D01*
X3641597Y780795D01*
X3618072Y906365D02*
G01*
X3710000Y998296D01*
X3710000Y1016000D01*
X3833596Y780795D02*
G01*
X3737607Y780795D01*
X3737609Y780795D02*
G01*
X3641597Y780795D01*
X6089650Y-1154158D02*
G01*
X6100808Y-1143000D01*
X6134100Y-1143000D01*
D11*
X8001000Y813302D02*
G01*
X8001000Y813302D01*
X8001000Y1016000D01*
D10*
X6286500Y800100D02*
G01*
X6591300Y800100D01*
D13*
X6089650Y-1154158D02*
G01*
X6089650Y-1169941D01*
X6078491Y-1181100D01*
X5168900Y-1181100D01*
D10*
X8331200Y0D02*
G01*
X8378360Y0D01*
X8396130Y-3535D01*
X8412868Y-10467D01*
X8427935Y-20535D01*
X8469708Y-62308D01*
X8482619Y-81630D01*
X8491512Y-103101D01*
X8496045Y-125892D01*
X8496045Y-1054100D01*
X8000238Y-706881D02*
G01*
X8000238Y-431711D01*
X7995709Y-408912D01*
X7986824Y-387431D01*
X7973926Y-368094D01*
X7316106Y291134D01*
X7296800Y304058D01*
X7275339Y312961D01*
X7252555Y317500D01*
X6604000Y317500D01*
X6286500Y-673100D02*
G01*
X6299200Y-673100D01*
X6577662Y-951562D01*
X6596984Y-964473D01*
X6618455Y-973366D01*
X6641246Y-977900D01*
X7014276Y-977900D01*
X7035218Y-973734D01*
X7054946Y-965563D01*
X7072701Y-953698D01*
X7087798Y-938601D01*
X7099663Y-920846D01*
X7107834Y-901118D01*
X7112000Y-880176D01*
X7112000Y-812800D01*
X6286500Y-800100D02*
G01*
X6514162Y-1027762D01*
X6533484Y-1040673D01*
X6554955Y-1049566D01*
X6577746Y-1054100D01*
X7074753Y-1054100D01*
X7097544Y-1049566D01*
X7119015Y-1040673D01*
X7138337Y-1027762D01*
X7212662Y-953437D01*
X7225573Y-934115D01*
X7234466Y-912644D01*
X7239000Y-889853D01*
X7239000Y-812800D01*
X8558529Y1016000D02*
G01*
X8558529Y658276D01*
X8553996Y635485D01*
X8545103Y614014D01*
X8532192Y594692D01*
X8421037Y483537D01*
X8401715Y470626D01*
X8380244Y461733D01*
X8357453Y457200D01*
X7578133Y457200D01*
X7560241Y460583D01*
X7543256Y467248D01*
X7527897Y476892D01*
X7514584Y489237D01*
X7504148Y503936D01*
X7496936Y520458D01*
X7493254Y538106D01*
X7493254Y813054D01*
X7620254Y813054D02*
G01*
X7620254Y873930D01*
X7616903Y890767D01*
X7610335Y906627D01*
X7600797Y920902D01*
X7588656Y933043D01*
X7574381Y942581D01*
X7558521Y949149D01*
X7541684Y952500D01*
X7034946Y952500D01*
X7012155Y947966D01*
X6990684Y939073D01*
X6971362Y926162D01*
X6617637Y572437D01*
X6598315Y559526D01*
X6576844Y550633D01*
X6554053Y546100D01*
X6286500Y546100D01*
X7747254Y813054D02*
G01*
X7747254Y867757D01*
X7743154Y888372D01*
X7735110Y907790D01*
X7723433Y925266D01*
X7659037Y989662D01*
X7639715Y1002573D01*
X7618244Y1011466D01*
X7595453Y1016000D01*
X6984146Y1016000D01*
X6961355Y1011466D01*
X6939884Y1002573D01*
X6920562Y989662D01*
X6630337Y699437D01*
X6611015Y686526D01*
X6589544Y677633D01*
X6566753Y673100D01*
X6286500Y673100D01*
X5219700Y-546100D02*
G01*
X5020231Y-346631D01*
X5007320Y-327309D01*
X4998427Y-305838D01*
X4993893Y-283047D01*
X4993893Y1016000D01*
D15*
X3871899Y152400D02*
G01*
X4826000Y152400D01*
D10*
X6286500Y-927100D02*
G01*
X6299200Y-927100D01*
X6488762Y-1116662D01*
X6508084Y-1129573D01*
X6529555Y-1138466D01*
X6552346Y-1143000D01*
X7138253Y-1143000D01*
X7161044Y-1138466D01*
X7182515Y-1129573D01*
X7201837Y-1116662D01*
X7339662Y-978837D01*
X7352573Y-959515D01*
X7361466Y-938044D01*
X7366000Y-915253D01*
X7366000Y-812800D01*
X5168900Y-1181100D02*
G01*
X3936146Y-1181100D01*
X3913355Y-1176566D01*
X3891884Y-1167673D01*
X3872562Y-1154762D01*
X3556000Y-838200D01*
D11*
X3671900Y114698D02*
G01*
X3671900Y-145110D01*
X3651910Y-165100D01*
X6286500Y419100D02*
G01*
X7073900Y419100D01*
X7429500Y1143000D02*
G01*
X7606873Y1143000D01*
X7623992Y1141313D01*
X7640868Y1137958D01*
X7657330Y1132961D01*
X7673225Y1126378D01*
X7688399Y1118268D01*
X7702704Y1108710D01*
X7716004Y1097795D01*
X7834835Y978964D01*
X7844353Y967366D01*
X7852689Y954892D01*
X7859760Y941661D01*
X7865501Y927801D01*
X7869857Y913444D01*
X7872783Y898730D01*
X7874254Y883800D01*
X7874254Y813054D01*
D16*
G01*
X4114825Y558800D03*
G01*
X4114825Y381000D03*
G01*
X4114825Y736600D03*
G01*
X4114825Y-584200D03*
G01*
X4114825Y-762000D03*
G01*
X4114825Y-406400D03*
D17*
G01*
X7735824Y-1066800D03*
G01*
X7935823Y-1066800D03*
G01*
X3909923Y1016000D03*
G01*
X3709924Y1016000D03*
D18*
G01*
X8000032Y-706897D03*
G01*
X7746032Y-706897D03*
G01*
X7365032Y-706897D03*
G01*
X7238032Y-706897D03*
G01*
X7111032Y-706897D03*
D19*
G01*
X7492032Y707075D03*
G01*
X7619032Y707075D03*
G01*
X7746032Y707075D03*
G01*
X7873032Y707075D03*
G01*
X8000032Y707075D03*
D20*
G01*
X6884134Y-444423D03*
G01*
X6884134Y-190423D03*
G01*
X6884134Y-63423D03*
G01*
X6884134Y63576D03*
G01*
X6884134Y190576D03*
D21*
G01*
X8078495Y1016000D03*
G01*
X8558504Y1016000D03*
D22*
G01*
X8166201Y-1054100D03*
G01*
X8496147Y-1054100D03*
D23*
G01*
X3891889Y-165100D03*
G01*
X3651910Y-165100D03*
D24*
G01*
X4993893Y1016000D03*
G01*
X5343906Y1016000D03*
D17*
G01*
X3871899Y152400D03*
G01*
X3671900Y152400D03*
D10*
G75*
G01*
X4993894Y977900D02*
G03*
X4955794Y1016000I-38100J0D01*
D11*
G75*
G01*
X3671900Y52000D02*
G03*
X3609200Y114700I-62700J0D01*
G75*
G01*
X3609200Y-140100D02*
G03*
X3671900Y-77400I0J62700D01*
D13*
G75*
G01*
X3641598Y819495D02*
G03*
X3680297Y780796I38699J0D01*
D11*
G75*
G01*
X8063700Y1016000D02*
G03*
X8001000Y953300I0J-62700D01*
D25*
G01*
X5664200Y1016000D03*
G01*
X5791200Y1016000D03*
D26*
G01*
X5918200Y1016000D03*
D27*
G01*
X5969000Y609600D03*
D28*
G01*
X5969000Y355600D03*
G01*
X5969000Y101600D03*
G01*
X5969000Y-152400D03*
G01*
X5969000Y-406400D03*
D12*
G01*
X6286500Y215900D03*
G01*
X6286500Y88900D03*
G01*
X6286500Y-38100D03*
G01*
X6286500Y-165100D03*
G01*
X6286500Y-292100D03*
G01*
X6286500Y-419100D03*
G01*
X6286500Y-546100D03*
G01*
X6286500Y-673100D03*
G01*
X6286500Y-800100D03*
G01*
X6286500Y-927100D03*
G01*
X6286500Y927100D03*
G01*
X6286500Y800100D03*
G01*
X6286500Y673100D03*
G01*
X6286500Y546100D03*
G01*
X6286500Y419100D03*
D29*
G01*
X3721709Y556310D03*
G01*
X3721709Y-580694D03*
D30*
G01*
X8369300Y647700D03*
G01*
X6604000Y-762000D03*
D31*
G01*
X3505200Y838200D03*
G01*
X3505200Y139700D03*
G01*
X3505022Y-165811D03*
G01*
X3505022Y-864311D03*
D32*
G01*
X8331200Y0D03*
G01*
X5219700Y-546100D03*
G01*
X3886200Y-457200D03*
G01*
X6604000Y317500D03*
G01*
X6591300Y800100D03*
G01*
X8001000Y1016000D03*
G01*
X7429500Y1143000D03*
G01*
X5130800Y-114300D03*
G01*
X5130800Y114300D03*
G01*
X5130800Y0D03*
D33*
G01*
X6692900Y1054100D03*
D12*
G01*
X4991100Y1016000D03*
G01*
X5346700Y1016000D03*
D32*
G01*
X3641597Y780795D03*
G01*
X3737609Y780795D03*
G01*
X3833596Y780795D03*
G01*
X4826000Y152400D03*
D31*
G01*
X4267200Y736600D03*
G01*
X4279900Y-762000D03*
D32*
G01*
X3644900Y-1066800D03*
G01*
X3759200Y-1066800D03*
G01*
X3873500Y-1066800D03*
G01*
X5867400Y-1066800D03*
G01*
X5981700Y-1066800D03*
G01*
X6096000Y-1066800D03*
G01*
X4737100Y-1066800D03*
G01*
X4851400Y-1066800D03*
G01*
X4965700Y-1066800D03*
G01*
X5270500Y-749300D03*
G01*
X5384800Y-749300D03*
G01*
X5499100Y-749300D03*
G01*
X5270500Y457200D03*
G01*
X5384800Y457200D03*
G01*
X5499100Y457200D03*
G01*
X5270500Y787400D03*
G01*
X5384800Y787400D03*
G01*
X5499100Y787400D03*
D31*
G01*
X7073900Y419100D03*
G01*
X7579436Y1143000D03*
M02*
