G04 Layer: TopSolderMaskLayer*
G04 EasyEDA v6.5.40, 2025-03-19 11:18:00*
G04 e3f432f7db7c4c49a0c0585cfcba0d0d,10*
G04 Gerber Generator version 0.2*
G04 Scale: 100 percent, Rotated: No, Reflected: No *
G04 Dimensions in millimeters *
G04 leading zeros omitted , absolute positions ,4 integer and 5 decimal *
%FSLAX45Y45*%
%MOMM*%

%AMMACRO1*1,1,$1,$2,$3*1,1,$1,$4,$5*1,1,$1,0-$2,0-$3*1,1,$1,0-$4,0-$5*20,1,$1,$2,$3,$4,$5,0*20,1,$1,$4,$5,0-$2,0-$3,0*20,1,$1,0-$2,0-$3,0-$4,0-$5,0*20,1,$1,0-$4,0-$5,$2,$3,0*4,1,4,$2,$3,$4,$5,0-$2,0-$3,0-$4,0-$5,$2,$3,0*%
%ADD10R,1.2032X1.6032*%
%ADD11O,1.1031982X1.8031968*%
%ADD12MACRO1,0.2032X0.45X-0.8X-0.45X-0.8*%
%ADD13MACRO1,0.2032X0.5X-0.775X-0.5X-0.775*%
%ADD14MACRO1,0.2032X-0.5X0.775X0.5X0.775*%
%ADD15MACRO1,0.2032X-0.5004X-1.4999X-0.5004X1.4999*%
%ADD16MACRO1,0.2032X0.5004X1.5011X0.5004X-1.5011*%
%ADD17MACRO1,0.2032X-1.4999X0.5004X1.4999X0.5004*%
%ADD18MACRO1,0.2032X0.8499X0.8499X0.8499X-0.8499*%
%ADD19C,1.9032*%
%ADD20MACRO1,0.2032X-0.4X0.7X0.4X0.7*%
%ADD21MACRO1,0.2032X-0.7493X0.7493X0.7493X0.7493*%
%ADD22MACRO1,0.2032X0.5X-0.5X-0.5X-0.5*%
%ADD23C,1.2032*%
%ADD24MACRO1,0.2032X-0.75X1.3X0.75X1.3*%
%ADD25C,2.2032*%
%ADD26C,1.4480*%

%LPD*%
D10*
G01*
X4114825Y558800D03*
G01*
X4114825Y381000D03*
G01*
X4114825Y736600D03*
G01*
X4114825Y-584200D03*
G01*
X4114825Y-762000D03*
G01*
X4114825Y-406400D03*
D11*
G01*
X5664200Y1016000D03*
G01*
X5791200Y1016000D03*
D12*
G01*
X5918198Y1016000D03*
D13*
G01*
X7735824Y-1066800D03*
G01*
X7935823Y-1066800D03*
D14*
G01*
X3909923Y1016000D03*
G01*
X3709924Y1016000D03*
D15*
G01*
X8000032Y-706897D03*
G01*
X7746032Y-706897D03*
G01*
X7365032Y-706897D03*
G01*
X7238032Y-706897D03*
G01*
X7111032Y-706897D03*
D16*
G01*
X7492032Y707075D03*
G01*
X7619032Y707075D03*
G01*
X7746032Y707075D03*
G01*
X7873032Y707075D03*
G01*
X8000032Y707075D03*
D17*
G01*
X6884134Y-444423D03*
G01*
X6884134Y-190423D03*
G01*
X6884134Y-63423D03*
G01*
X6884134Y63576D03*
G01*
X6884134Y190576D03*
D18*
G01*
X5969000Y609600D03*
D19*
G01*
X5969000Y355600D03*
G01*
X5969000Y101600D03*
G01*
X5969000Y-152400D03*
G01*
X5969000Y-406400D03*
D20*
G01*
X8078500Y1016000D03*
G01*
X8558499Y1016000D03*
D21*
G01*
X8166201Y-1054100D03*
G01*
X8496147Y-1054100D03*
D22*
G01*
X3891899Y-165100D03*
G01*
X3651900Y-165100D03*
D23*
G01*
X6286500Y215900D03*
G01*
X6286500Y88900D03*
G01*
X6286500Y-38100D03*
G01*
X6286500Y-165100D03*
G01*
X6286500Y-292100D03*
G01*
X6286500Y-419100D03*
G01*
X6286500Y-546100D03*
G01*
X6286500Y-673100D03*
G01*
X6286500Y-800100D03*
G01*
X6286500Y-927100D03*
G01*
X6286500Y927100D03*
G01*
X6286500Y800100D03*
G01*
X6286500Y673100D03*
G01*
X6286500Y546100D03*
G01*
X6286500Y419100D03*
D24*
G01*
X4993902Y1016000D03*
G01*
X5343902Y1016000D03*
D14*
G01*
X3871899Y152400D03*
G01*
X3671900Y152400D03*
D25*
G01*
X3721709Y556310D03*
G01*
X3721709Y-580694D03*
D26*
G01*
X8369300Y647700D03*
G01*
X6604000Y-762000D03*
M02*
