G04 Layer: InnerLayer1*
G04 EasyEDA v6.5.40, 2025-03-19 11:18:00*
G04 e3f432f7db7c4c49a0c0585cfcba0d0d,10*
G04 Gerber Generator version 0.2*
G04 Scale: 100 percent, Rotated: No, Reflected: No *
G04 Dimensions in millimeters *
G04 leading zeros omitted , absolute positions ,4 integer and 5 decimal *
%FSLAX45Y45*%
%MOMM*%

%ADD10C,0.2540*%
%ADD11O,0.8999982X1.5999968*%
%ADD12R,0.9000X1.6000*%
%ADD13R,1.7000X1.7000*%
%ADD14C,1.7000*%
%ADD15C,1.0000*%
%ADD16C,2.0000*%
%ADD17C,1.1520*%
%ADD18C,0.6200*%
%ADD19C,0.6096*%
%ADD20C,0.6100*%

%LPD*%
G36*
X-2565400Y1041400D02*
G01*
X-2705100Y1016000D01*
X-2857500Y977900D01*
X-2984500Y914400D01*
X-3200400Y749300D01*
X-3327400Y622300D01*
X-3429000Y457200D01*
X-3505200Y241300D01*
X-3543300Y-25400D01*
X-3530600Y-165100D01*
X-3479800Y-355600D01*
X-3403600Y-520700D01*
X-3302000Y-673100D01*
X-3149600Y-825500D01*
X-2984500Y-939800D01*
X-2806700Y-1016000D01*
X-2616200Y-1054100D01*
X-2451100Y-1054100D01*
X3276600Y-1066800D01*
X3327400Y-1054100D01*
X3390900Y-1016000D01*
X3441700Y-952500D01*
X3467100Y-914400D01*
X3530600Y-914400D01*
X3543300Y-838200D01*
X3530600Y-812800D01*
X3454400Y-812800D01*
X3454400Y-800100D01*
X3429000Y-749300D01*
X3390900Y-698500D01*
X3352800Y-673100D01*
X3276600Y-660400D01*
X-2565400Y-660400D01*
X-2730500Y-609600D01*
X-2870200Y-520700D01*
X-2984500Y-431800D01*
X-3073400Y-304800D01*
X-3111500Y-177800D01*
X-3136900Y-101600D01*
X-3136900Y0D01*
X-3124200Y152400D01*
X-3060700Y292100D01*
X-3009900Y355600D01*
X-2933700Y457200D01*
X-2832100Y533400D01*
X-2705100Y596900D01*
X-2565400Y635000D01*
X3289300Y635000D01*
X3352800Y660400D01*
X3403600Y698500D01*
X3441700Y736600D01*
X3454400Y787400D01*
X3530600Y787400D01*
X3530600Y889000D01*
X3454400Y889000D01*
X3454400Y901700D01*
X3403600Y977900D01*
X3340100Y1016000D01*
X3251200Y1041400D01*
G37*
G36*
X-2476500Y393700D02*
G01*
X-2540000Y381000D01*
X-2628900Y368300D01*
X-2705100Y317500D01*
X-2755900Y279400D01*
X-2844800Y165100D01*
X-2882900Y63500D01*
X-2895600Y-12700D01*
X-2882900Y-101600D01*
X-2857500Y-177800D01*
X-2819400Y-228600D01*
X-2768600Y-292100D01*
X-2654300Y-368300D01*
X-2578100Y-393700D01*
X-2451100Y-419100D01*
X2959100Y-406400D01*
X3060700Y-406400D01*
X3187700Y-342900D01*
X3251200Y-279400D01*
X3314700Y-203200D01*
X3530600Y-215900D01*
X3530600Y-203200D01*
X3543300Y-114300D01*
X3340100Y-114300D01*
X3365500Y-12700D01*
X3352800Y88900D01*
X3543300Y88900D01*
X3532124Y178409D01*
X3543300Y177800D01*
X3530600Y190500D01*
X3532124Y178409D01*
X3314700Y190500D01*
X3302000Y190500D01*
X3263900Y254000D01*
X3213100Y304800D01*
X3086100Y368300D01*
X2971800Y393700D01*
G37*
D10*
X3537501Y-912700D02*
G01*
X3456150Y-912700D01*
X3537501Y-812700D02*
G01*
X3537501Y-912700D01*
X3537501Y-812700D02*
G01*
X3456150Y-812700D01*
X3262500Y-662701D02*
G01*
X-2487500Y-662701D01*
X2962501Y-412102D02*
G01*
X-2487500Y-412102D01*
X3308192Y-212750D02*
G01*
X3536904Y-212750D01*
X3536904Y-112699D02*
G01*
X3536904Y-212750D01*
X3349183Y-112699D02*
G01*
X3536904Y-112699D01*
X2962501Y386702D02*
G01*
X-2487500Y386702D01*
X3262500Y637301D02*
G01*
X-2487500Y637301D01*
X3349183Y87299D02*
G01*
X3536904Y87299D01*
X3308192Y187350D02*
G01*
X3536904Y187350D01*
X3536904Y87299D01*
X3537501Y787300D02*
G01*
X3456150Y787300D01*
X3537458Y887221D02*
G01*
X3484118Y887221D01*
X3456177Y887221D01*
X3537501Y887300D02*
G01*
X3537501Y787300D01*
X3262500Y1037300D02*
G01*
X-2487500Y1037300D01*
X3262500Y-1062700D02*
G01*
X-2487500Y-1062700D01*
G75*
G01*
X-2487501Y1037300D02*
G03*
X-2487501Y-1062700I0J-1050000D01*
G75*
G01*
X3456150Y887301D02*
G03*
X3262500Y1037300I-193649J-50000D01*
G75*
G01*
X3262500Y637301D02*
G03*
X3456150Y787301I1J200000D01*
G75*
G01*
X3308193Y187350D02*
G03*
X2962501Y386702I-345691J-200050D01*
G75*
G01*
X3349183Y-112700D02*
G03*
X3349183Y87300I-386681J100000D01*
G75*
G01*
X2962501Y-412102D02*
G03*
X3308193Y-212750I1J399402D01*
G75*
G01*
X3456150Y-812701D02*
G03*
X3262500Y-662701I-193649J-50000D01*
G75*
G01*
X3262500Y-1062700D02*
G03*
X3456150Y-912701I1J199999D01*
G75*
G01*
X-2487501Y386702D02*
G03*
X-2487501Y-412102I0J-399402D01*
G75*
G01*
X-2487501Y637301D02*
G03*
X-2487501Y-662701I0J-650001D01*
D11*
G01*
X5664200Y1016000D03*
G01*
X5791200Y1016000D03*
D12*
G01*
X5918200Y1016000D03*
D13*
G01*
X5969000Y609600D03*
D14*
G01*
X5969000Y355600D03*
G01*
X5969000Y101600D03*
G01*
X5969000Y-152400D03*
G01*
X5969000Y-406400D03*
D15*
G01*
X6286500Y215900D03*
G01*
X6286500Y88900D03*
G01*
X6286500Y-38100D03*
G01*
X6286500Y-165100D03*
G01*
X6286500Y-292100D03*
G01*
X6286500Y-419100D03*
G01*
X6286500Y-546100D03*
G01*
X6286500Y-673100D03*
G01*
X6286500Y-800100D03*
G01*
X6286500Y-927100D03*
G01*
X6286500Y927100D03*
G01*
X6286500Y800100D03*
G01*
X6286500Y673100D03*
G01*
X6286500Y546100D03*
G01*
X6286500Y419100D03*
D16*
G01*
X3721709Y556310D03*
G01*
X3721709Y-580694D03*
D17*
G01*
X8369300Y647700D03*
G01*
X6604000Y-762000D03*
D18*
G01*
X3505200Y838200D03*
G01*
X3505200Y139700D03*
G01*
X3505022Y-165811D03*
G01*
X3505022Y-864311D03*
D19*
G01*
X8331200Y0D03*
G01*
X5219700Y-546100D03*
G01*
X3886200Y-457200D03*
G01*
X6604000Y317500D03*
G01*
X6591300Y800100D03*
G01*
X8001000Y1016000D03*
G01*
X7429500Y1143000D03*
G01*
X5130800Y-114300D03*
G01*
X5130800Y114300D03*
G01*
X5130800Y0D03*
D20*
G01*
X6692900Y1054100D03*
D15*
G01*
X4991100Y1016000D03*
G01*
X5346700Y1016000D03*
D19*
G01*
X3641597Y780795D03*
G01*
X3737609Y780795D03*
G01*
X3833596Y780795D03*
G01*
X4826000Y152400D03*
D18*
G01*
X4267200Y736600D03*
G01*
X4279900Y-762000D03*
D19*
G01*
X3644900Y-1066800D03*
G01*
X3759200Y-1066800D03*
G01*
X3873500Y-1066800D03*
G01*
X5867400Y-1066800D03*
G01*
X5981700Y-1066800D03*
G01*
X6096000Y-1066800D03*
G01*
X4737100Y-1066800D03*
G01*
X4851400Y-1066800D03*
G01*
X4965700Y-1066800D03*
G01*
X5270500Y-749300D03*
G01*
X5384800Y-749300D03*
G01*
X5499100Y-749300D03*
G01*
X5270500Y457200D03*
G01*
X5384800Y457200D03*
G01*
X5499100Y457200D03*
G01*
X5270500Y787400D03*
G01*
X5384800Y787400D03*
G01*
X5499100Y787400D03*
D18*
G01*
X7073900Y419100D03*
G01*
X7579436Y1143000D03*
M02*
