G04 Layer: InnerLayer2*
G04 EasyEDA v6.5.40, 2025-03-19 11:18:00*
G04 e3f432f7db7c4c49a0c0585cfcba0d0d,10*
G04 Gerber Generator version 0.2*
G04 Scale: 100 percent, Rotated: No, Reflected: No *
G04 Dimensions in millimeters *
G04 leading zeros omitted , absolute positions ,4 integer and 5 decimal *
%FSLAX45Y45*%
%MOMM*%

%ADD10O,0.8999982X1.5999968*%
%ADD11R,0.9000X1.6000*%
%ADD12R,1.7000X1.7000*%
%ADD13C,1.7000*%
%ADD14C,1.0000*%
%ADD15C,2.0000*%
%ADD16C,1.1520*%
%ADD17C,0.6200*%
%ADD18C,0.6096*%
%ADD19C,0.6100*%

%LPD*%
D10*
G01*
X5664200Y1016000D03*
G01*
X5791200Y1016000D03*
D11*
G01*
X5918200Y1016000D03*
D12*
G01*
X5969000Y609600D03*
D13*
G01*
X5969000Y355600D03*
G01*
X5969000Y101600D03*
G01*
X5969000Y-152400D03*
G01*
X5969000Y-406400D03*
D14*
G01*
X6286500Y215900D03*
G01*
X6286500Y88900D03*
G01*
X6286500Y-38100D03*
G01*
X6286500Y-165100D03*
G01*
X6286500Y-292100D03*
G01*
X6286500Y-419100D03*
G01*
X6286500Y-546100D03*
G01*
X6286500Y-673100D03*
G01*
X6286500Y-800100D03*
G01*
X6286500Y-927100D03*
G01*
X6286500Y927100D03*
G01*
X6286500Y800100D03*
G01*
X6286500Y673100D03*
G01*
X6286500Y546100D03*
G01*
X6286500Y419100D03*
D15*
G01*
X3721709Y556310D03*
G01*
X3721709Y-580694D03*
D16*
G01*
X8369300Y647700D03*
G01*
X6604000Y-762000D03*
D17*
G01*
X3505200Y838200D03*
G01*
X3505200Y139700D03*
G01*
X3505022Y-165811D03*
G01*
X3505022Y-864311D03*
D18*
G01*
X8331200Y0D03*
G01*
X5219700Y-546100D03*
G01*
X3886200Y-457200D03*
G01*
X6604000Y317500D03*
G01*
X6591300Y800100D03*
G01*
X8001000Y1016000D03*
G01*
X7429500Y1143000D03*
G01*
X5130800Y-114300D03*
G01*
X5130800Y114300D03*
G01*
X5130800Y0D03*
D19*
G01*
X6692900Y1054100D03*
D14*
G01*
X4991100Y1016000D03*
G01*
X5346700Y1016000D03*
D18*
G01*
X3641597Y780795D03*
G01*
X3737609Y780795D03*
G01*
X3833596Y780795D03*
G01*
X4826000Y152400D03*
D17*
G01*
X4267200Y736600D03*
G01*
X4279900Y-762000D03*
D18*
G01*
X3644900Y-1066800D03*
G01*
X3759200Y-1066800D03*
G01*
X3873500Y-1066800D03*
G01*
X5867400Y-1066800D03*
G01*
X5981700Y-1066800D03*
G01*
X6096000Y-1066800D03*
G01*
X4737100Y-1066800D03*
G01*
X4851400Y-1066800D03*
G01*
X4965700Y-1066800D03*
G01*
X5270500Y-749300D03*
G01*
X5384800Y-749300D03*
G01*
X5499100Y-749300D03*
G01*
X5270500Y457200D03*
G01*
X5384800Y457200D03*
G01*
X5499100Y457200D03*
G01*
X5270500Y787400D03*
G01*
X5384800Y787400D03*
G01*
X5499100Y787400D03*
D17*
G01*
X7073900Y419100D03*
G01*
X7579436Y1143000D03*
M02*
