G04 Layer: BottomSilkscreenLayer*
G04 EasyEDA v6.5.40, 2025-03-19 11:18:00*
G04 e3f432f7db7c4c49a0c0585cfcba0d0d,10*
G04 Gerber Generator version 0.2*
G04 Scale: 100 percent, Rotated: No, Reflected: No *
G04 Dimensions in millimeters *
G04 leading zeros omitted , absolute positions ,4 integer and 5 decimal *
%FSLAX45Y45*%
%MOMM*%

%ADD10C,0.2032*%
%ADD11C,0.1524*%
%ADD12C,0.2600*%
%ADD13C,0.2540*%

%LPD*%
G36*
X3611575Y-743305D02*
G01*
X3609340Y-743661D01*
X3606952Y-744372D01*
X3604361Y-745439D01*
X3598722Y-748639D01*
X3595674Y-750773D01*
X3589172Y-756208D01*
X3582111Y-763219D01*
X3574542Y-771855D01*
X3566566Y-782116D01*
X3520694Y-847496D01*
X3468370Y-783031D01*
X3458667Y-772210D01*
X3449726Y-763320D01*
X3441446Y-756259D01*
X3434029Y-750976D01*
X3430625Y-748995D01*
X3424478Y-746302D01*
X3421735Y-745591D01*
X3419246Y-745286D01*
X3417011Y-745337D01*
X3415029Y-745794D01*
X3413302Y-746658D01*
X3411829Y-747877D01*
X3410610Y-749503D01*
X3409696Y-751433D01*
X3409035Y-753770D01*
X3408679Y-756462D01*
X3408629Y-759460D01*
X3408883Y-762812D01*
X3410305Y-770483D01*
X3411474Y-774852D01*
X3414877Y-784402D01*
X3419601Y-795121D01*
X3425748Y-807008D01*
X3433419Y-819962D01*
X3445713Y-839622D01*
X3452317Y-851814D01*
X3455162Y-857656D01*
X3459835Y-868832D01*
X3463188Y-879348D01*
X3464407Y-884326D01*
X3465322Y-889101D01*
X3465880Y-893724D01*
X3466134Y-898144D01*
X3466084Y-902360D01*
X3465677Y-906373D01*
X3464966Y-910234D01*
X3463950Y-913841D01*
X3462629Y-917244D01*
X3461004Y-920445D01*
X3459022Y-923442D01*
X3456736Y-926185D01*
X3454196Y-928776D01*
X3451301Y-931062D01*
X3448100Y-933145D01*
X3444544Y-935024D01*
X3440734Y-936650D01*
X3436620Y-938021D01*
X3432200Y-939139D01*
X3427476Y-940053D01*
X3422396Y-940714D01*
X3406038Y-941578D01*
X3401110Y-942644D01*
X3396640Y-944371D01*
X3392627Y-946759D01*
X3389122Y-949706D01*
X3386175Y-953211D01*
X3383737Y-957224D01*
X3381959Y-961694D01*
X3380740Y-966622D01*
X3380232Y-971905D01*
X3380333Y-977595D01*
X3381146Y-983538D01*
X3382619Y-990092D01*
X3383604Y-993495D01*
X3402076Y-993495D01*
X3402584Y-988110D01*
X3404057Y-983081D01*
X3406444Y-978509D01*
X3409543Y-974496D01*
X3413302Y-971245D01*
X3417620Y-968756D01*
X3422396Y-967181D01*
X3427476Y-966622D01*
X3437331Y-967486D01*
X3445408Y-969924D01*
X3450894Y-973480D01*
X3452876Y-977798D01*
X3452368Y-980389D01*
X3450894Y-983386D01*
X3448507Y-986739D01*
X3445408Y-990346D01*
X3441649Y-994003D01*
X3437331Y-997712D01*
X3432556Y-1001318D01*
X3427476Y-1004722D01*
X3422396Y-1007313D01*
X3417620Y-1008684D01*
X3413302Y-1008837D01*
X3409543Y-1007871D01*
X3406444Y-1005840D01*
X3404057Y-1002690D01*
X3402584Y-998575D01*
X3402076Y-993495D01*
X3383604Y-993495D01*
X3386429Y-1001928D01*
X3388664Y-1007160D01*
X3391204Y-1011936D01*
X3393897Y-1016253D01*
X3396792Y-1020165D01*
X3399891Y-1023569D01*
X3403092Y-1026566D01*
X3406444Y-1029106D01*
X3409848Y-1031138D01*
X3413404Y-1032764D01*
X3417011Y-1033881D01*
X3420668Y-1034542D01*
X3424326Y-1034745D01*
X3427984Y-1034440D01*
X3431692Y-1033729D01*
X3435299Y-1032459D01*
X3438855Y-1030782D01*
X3442360Y-1028598D01*
X3445764Y-1025906D01*
X3449015Y-1022756D01*
X3452164Y-1019098D01*
X3455162Y-1014933D01*
X3457956Y-1010310D01*
X3460597Y-1005179D01*
X3462985Y-999540D01*
X3467201Y-987348D01*
X3469386Y-981710D01*
X3471722Y-976426D01*
X3474212Y-971550D01*
X3476802Y-967079D01*
X3479546Y-962964D01*
X3482390Y-959256D01*
X3485337Y-955903D01*
X3488385Y-953008D01*
X3491534Y-950468D01*
X3494786Y-948283D01*
X3498138Y-946505D01*
X3501542Y-945134D01*
X3505047Y-944168D01*
X3508603Y-943559D01*
X3512261Y-943356D01*
X3515969Y-943559D01*
X3519678Y-944118D01*
X3523487Y-945083D01*
X3527348Y-946403D01*
X3535121Y-950264D01*
X3539032Y-952804D01*
X3542995Y-955700D01*
X3546957Y-959002D01*
X3554882Y-966774D01*
X3564102Y-977798D01*
X3579876Y-977798D01*
X3581857Y-973480D01*
X3587343Y-969924D01*
X3595420Y-967486D01*
X3605276Y-966622D01*
X3610356Y-967181D01*
X3615131Y-968756D01*
X3619449Y-971245D01*
X3623208Y-974496D01*
X3626307Y-978509D01*
X3628694Y-983081D01*
X3630168Y-988110D01*
X3630676Y-993495D01*
X3630168Y-998575D01*
X3628694Y-1002690D01*
X3626307Y-1005840D01*
X3623208Y-1007871D01*
X3619449Y-1008837D01*
X3615131Y-1008684D01*
X3610356Y-1007313D01*
X3605276Y-1004722D01*
X3600196Y-1001318D01*
X3595420Y-997712D01*
X3591102Y-994003D01*
X3587343Y-990346D01*
X3584244Y-986739D01*
X3581857Y-983386D01*
X3580384Y-980389D01*
X3579876Y-977798D01*
X3564102Y-977798D01*
X3570681Y-986993D01*
X3579215Y-999845D01*
X3584041Y-1006195D01*
X3589070Y-1011885D01*
X3594252Y-1017016D01*
X3599484Y-1021435D01*
X3604666Y-1025093D01*
X3609746Y-1028039D01*
X3614674Y-1030173D01*
X3619398Y-1031392D01*
X3623818Y-1031748D01*
X3627882Y-1031189D01*
X3631488Y-1029614D01*
X3636010Y-1026464D01*
X3640023Y-1022959D01*
X3643579Y-1019098D01*
X3646627Y-1014933D01*
X3649218Y-1010513D01*
X3651402Y-1005890D01*
X3653078Y-1001166D01*
X3654348Y-996289D01*
X3655212Y-991362D01*
X3655568Y-986383D01*
X3655568Y-981456D01*
X3655110Y-976630D01*
X3654247Y-971905D01*
X3652977Y-967333D01*
X3651351Y-963015D01*
X3649268Y-958900D01*
X3646830Y-955141D01*
X3644036Y-951737D01*
X3640836Y-948690D01*
X3637279Y-946150D01*
X3633317Y-944067D01*
X3629050Y-942492D01*
X3624427Y-941527D01*
X3613251Y-941019D01*
X3607358Y-940511D01*
X3601872Y-939698D01*
X3596792Y-938479D01*
X3592118Y-937006D01*
X3587800Y-935177D01*
X3583940Y-933043D01*
X3580384Y-930605D01*
X3577285Y-927912D01*
X3574592Y-924864D01*
X3572256Y-921562D01*
X3570325Y-917956D01*
X3568801Y-914095D01*
X3567684Y-909929D01*
X3566972Y-905560D01*
X3566668Y-900887D01*
X3566769Y-895959D01*
X3567277Y-890778D01*
X3568192Y-885393D01*
X3569512Y-879754D01*
X3571240Y-873861D01*
X3573373Y-867765D01*
X3575913Y-861466D01*
X3578910Y-854913D01*
X3586073Y-841248D01*
X3602431Y-814832D01*
X3608679Y-803554D01*
X3613759Y-793038D01*
X3617722Y-783437D01*
X3620566Y-774700D01*
X3622344Y-766927D01*
X3622903Y-763422D01*
X3623208Y-757174D01*
X3623005Y-754430D01*
X3621938Y-749858D01*
X3621074Y-747979D01*
X3619957Y-746404D01*
X3618687Y-745185D01*
X3617214Y-744220D01*
X3615537Y-743610D01*
X3613658Y-743305D01*
G37*
G36*
X-3712362Y173685D02*
G01*
X-3718915Y173583D01*
X-3729532Y172872D01*
X-3734460Y172110D01*
X-3734358Y171043D01*
X-3733596Y168706D01*
X-3728059Y156718D01*
X-3726942Y153720D01*
X-3726891Y152196D01*
X-3727907Y151536D01*
X-3737610Y149250D01*
X-3745484Y146913D01*
X-3754577Y143256D01*
X-3763568Y138836D01*
X-3771137Y134264D01*
X-3776065Y130606D01*
X-3780942Y126441D01*
X-3785666Y121818D01*
X-3790238Y116789D01*
X-3794607Y111353D01*
X-3798824Y105613D01*
X-3802837Y99517D01*
X-3806596Y93116D01*
X-3810152Y86461D01*
X-3813403Y79603D01*
X-3816350Y72491D01*
X-3821328Y58724D01*
X-3826560Y46075D01*
X-3828796Y41554D01*
X-3831488Y37185D01*
X-3834790Y32562D01*
X-3838600Y27940D01*
X-3842816Y23266D01*
X-3847287Y18796D01*
X-3851960Y14528D01*
X-3856685Y10668D01*
X-3861409Y7264D01*
X-3870961Y863D01*
X-3460038Y863D01*
X-3459175Y6045D01*
X-3456686Y11582D01*
X-3453079Y16814D01*
X-3448761Y20929D01*
X-3444443Y23368D01*
X-3439718Y24739D01*
X-3434842Y25095D01*
X-3429965Y24485D01*
X-3425291Y22961D01*
X-3420973Y20523D01*
X-3417214Y17272D01*
X-3414166Y13157D01*
X-3411321Y5638D01*
X-3411067Y-2286D01*
X-3413353Y-10058D01*
X-3418128Y-17170D01*
X-3422548Y-20421D01*
X-3428390Y-22656D01*
X-3434740Y-23622D01*
X-3440531Y-23063D01*
X-3448050Y-19558D01*
X-3454247Y-13868D01*
X-3458464Y-6756D01*
X-3460038Y863D01*
X-3870961Y863D01*
X-3871264Y660D01*
X-3865067Y-2336D01*
X-3860139Y-5029D01*
X-3855161Y-8331D01*
X-3850182Y-12090D01*
X-3845407Y-16306D01*
X-3840784Y-20878D01*
X-3836415Y-25755D01*
X-3832402Y-30886D01*
X-3828846Y-36118D01*
X-3827068Y-39370D01*
X-3822496Y-49580D01*
X-3817823Y-61620D01*
X-3812286Y-73863D01*
X-3806037Y-85496D01*
X-3799078Y-96469D01*
X-3795369Y-101701D01*
X-3787444Y-111506D01*
X-3779012Y-120497D01*
X-3773119Y-125983D01*
X-3767429Y-130911D01*
X-3761740Y-135331D01*
X-3756101Y-139242D01*
X-3750462Y-142748D01*
X-3744671Y-145796D01*
X-3738778Y-148488D01*
X-3729126Y-152044D01*
X-3723030Y-154686D01*
X-3723284Y-155702D01*
X-3726637Y-161239D01*
X-3735730Y-174447D01*
X-3736289Y-175564D01*
X-3733800Y-175920D01*
X-3727297Y-175463D01*
X-3718306Y-174244D01*
X-3708247Y-172466D01*
X-3697782Y-169926D01*
X-3686505Y-166420D01*
X-3675532Y-162306D01*
X-3665880Y-157988D01*
X-3657650Y-153416D01*
X-3648913Y-148031D01*
X-3642004Y-143306D01*
X-3639210Y-140665D01*
X-3640023Y-140055D01*
X-3645662Y-137871D01*
X-3655161Y-134823D01*
X-3667760Y-129590D01*
X-3681374Y-122834D01*
X-3694379Y-115417D01*
X-3712667Y-103225D01*
X-3713479Y-103174D01*
X-3713886Y-104648D01*
X-3713886Y-108051D01*
X-3713226Y-118516D01*
X-3713429Y-124612D01*
X-3713886Y-125476D01*
X-3717594Y-123850D01*
X-3723894Y-119633D01*
X-3731107Y-114198D01*
X-3737406Y-108661D01*
X-3743350Y-102260D01*
X-3748938Y-95148D01*
X-3753612Y-88036D01*
X-3756863Y-81737D01*
X-3758234Y-75895D01*
X-3758539Y-68681D01*
X-3757879Y-61366D01*
X-3756202Y-55372D01*
X-3753865Y-50952D01*
X-3750868Y-46786D01*
X-3747160Y-43027D01*
X-3742842Y-39573D01*
X-3737864Y-36474D01*
X-3732225Y-33731D01*
X-3725976Y-31292D01*
X-3717544Y-28956D01*
X-3712514Y-28295D01*
X-3695344Y-26924D01*
X-3671011Y-25450D01*
X-3611930Y-22860D01*
X-3582720Y-21996D01*
X-3557422Y-21590D01*
X-3542131Y-21590D01*
X-3541826Y-57912D01*
X-3541268Y-76606D01*
X-3540048Y-91643D01*
X-3508603Y-111607D01*
X-3507536Y-103936D01*
X-3506876Y-83566D01*
X-3506571Y-20624D01*
X-3496005Y-19405D01*
X-3488182Y-18948D01*
X-3480358Y-18999D01*
X-3477717Y-19659D01*
X-3475837Y-21336D01*
X-3470605Y-28956D01*
X-3466846Y-32918D01*
X-3462477Y-36423D01*
X-3457651Y-39420D01*
X-3452469Y-41808D01*
X-3447034Y-43586D01*
X-3441395Y-44704D01*
X-3435705Y-45110D01*
X-3430371Y-44907D01*
X-3425444Y-44246D01*
X-3420770Y-43129D01*
X-3416401Y-41503D01*
X-3412286Y-39420D01*
X-3408375Y-36830D01*
X-3404666Y-33731D01*
X-3401060Y-30124D01*
X-3397351Y-25755D01*
X-3394710Y-21844D01*
X-3392678Y-17729D01*
X-3390900Y-12700D01*
X-3389579Y-6502D01*
X-3389172Y254D01*
X-3389731Y7264D01*
X-3391204Y14020D01*
X-3393592Y20269D01*
X-3396792Y25958D01*
X-3400704Y31038D01*
X-3405327Y35509D01*
X-3410458Y39268D01*
X-3415995Y42367D01*
X-3421938Y44653D01*
X-3428136Y46126D01*
X-3434486Y46736D01*
X-3440887Y46431D01*
X-3447287Y45212D01*
X-3453536Y42976D01*
X-3459835Y39319D01*
X-3466337Y34086D01*
X-3471875Y28448D01*
X-3475126Y23469D01*
X-3476802Y19405D01*
X-3507892Y19405D01*
X-3508603Y112115D01*
X-3541420Y90830D01*
X-3542182Y22047D01*
X-3565398Y23114D01*
X-3690772Y26060D01*
X-3716324Y27127D01*
X-3723436Y27736D01*
X-3727551Y28448D01*
X-3733901Y30429D01*
X-3739591Y32918D01*
X-3744569Y35915D01*
X-3748836Y39370D01*
X-3752392Y43332D01*
X-3755237Y47701D01*
X-3757371Y52527D01*
X-3758793Y57759D01*
X-3759454Y63398D01*
X-3759352Y69392D01*
X-3758488Y75793D01*
X-3756914Y82600D01*
X-3755034Y87934D01*
X-3752646Y93116D01*
X-3749700Y98094D01*
X-3746144Y102920D01*
X-3741978Y107543D01*
X-3737254Y112064D01*
X-3731920Y116382D01*
X-3725976Y120599D01*
X-3722268Y122935D01*
X-3719626Y124307D01*
X-3717899Y124764D01*
X-3717036Y124307D01*
X-3715918Y120142D01*
X-3713073Y104902D01*
X-3712159Y101244D01*
X-3711397Y101447D01*
X-3707282Y105003D01*
X-3699662Y112623D01*
X-3694328Y117246D01*
X-3688537Y121666D01*
X-3682288Y125933D01*
X-3675532Y129997D01*
X-3668318Y133908D01*
X-3660698Y137617D01*
X-3647846Y143205D01*
X-3641293Y146558D01*
X-3640277Y147421D01*
X-3643274Y150571D01*
X-3650792Y155752D01*
X-3660292Y161239D01*
X-3669284Y165506D01*
X-3675126Y167690D01*
X-3681069Y169468D01*
X-3687165Y170992D01*
X-3693312Y172161D01*
X-3699560Y173024D01*
X-3705910Y173532D01*
G37*
G36*
X4503420Y63500D02*
G01*
X4498441Y63246D01*
X4493158Y62331D01*
X4487621Y60604D01*
X4482084Y57912D01*
X4482084Y41656D01*
X4488180Y41656D01*
X4490720Y55880D01*
X4493666Y57150D01*
X4496511Y58064D01*
X4499305Y58521D01*
X4502150Y58674D01*
X4507788Y58115D01*
X4513021Y56438D01*
X4517694Y53746D01*
X4521809Y49936D01*
X4525162Y45110D01*
X4527702Y39268D01*
X4529277Y32461D01*
X4529836Y24638D01*
X4529328Y16764D01*
X4527854Y9906D01*
X4525467Y4064D01*
X4522266Y-762D01*
X4518304Y-4521D01*
X4513630Y-7213D01*
X4508398Y-8839D01*
X4502658Y-9398D01*
X4499406Y-9245D01*
X4496206Y-8737D01*
X4492955Y-7873D01*
X4489704Y-6604D01*
X4487164Y7366D01*
X4481068Y7366D01*
X4481068Y-8890D01*
X4486452Y-11328D01*
X4491939Y-13004D01*
X4497628Y-13919D01*
X4503420Y-14224D01*
X4508855Y-13919D01*
X4513986Y-12954D01*
X4518761Y-11379D01*
X4523181Y-9296D01*
X4527143Y-6604D01*
X4530750Y-3454D01*
X4533798Y203D01*
X4536440Y4267D01*
X4538472Y8839D01*
X4539996Y13716D01*
X4540961Y18999D01*
X4541266Y24638D01*
X4540961Y30175D01*
X4539996Y35356D01*
X4538421Y40233D01*
X4536287Y44754D01*
X4533646Y48869D01*
X4530547Y52527D01*
X4526940Y55727D01*
X4522927Y58470D01*
X4518558Y60604D01*
X4513783Y62179D01*
X4508754Y63144D01*
G37*
G36*
X4449064Y63246D02*
G01*
X4439716Y61772D01*
X4433214Y57759D01*
X4429455Y51562D01*
X4428236Y43688D01*
X4428490Y40182D01*
X4429353Y36728D01*
X4430877Y33223D01*
X4433112Y29514D01*
X4436160Y25400D01*
X4440021Y20777D01*
X4450588Y9398D01*
X4463796Y-4064D01*
X4425188Y-4064D01*
X4425188Y-12700D01*
X4470908Y-12700D01*
X4470908Y-5842D01*
X4453890Y13208D01*
X4446778Y21844D01*
X4441799Y29413D01*
X4438853Y36372D01*
X4437888Y43180D01*
X4438853Y49580D01*
X4441596Y54559D01*
X4445914Y57810D01*
X4451604Y58928D01*
X4457700Y58166D01*
X4459732Y50038D01*
X4460951Y46837D01*
X4462322Y44704D01*
X4463897Y43535D01*
X4465828Y43180D01*
X4467606Y43434D01*
X4469079Y44094D01*
X4470349Y45110D01*
X4471416Y46482D01*
X4468825Y53797D01*
X4463745Y59029D01*
X4456938Y62179D01*
G37*
D10*
X3968241Y-483107D02*
G01*
X3968241Y-649223D01*
X4051300Y-566165D02*
G01*
X3884929Y-566165D01*
X4038600Y576834D02*
G01*
X3872229Y576834D01*
D11*
X6733072Y748743D02*
G01*
X6803115Y665271D01*
X6733072Y748743D02*
G01*
X6697268Y718700D01*
X6688665Y704852D01*
X6688007Y697336D01*
X6690812Y686094D01*
X6697505Y678116D01*
X6708089Y673404D01*
X6715442Y672939D01*
X6730575Y679008D01*
X6766379Y709051D02*
G01*
X6730575Y679008D01*
X6722137Y664964D01*
X6721314Y657644D01*
X6724119Y646402D01*
X6734241Y634337D01*
X6744825Y629625D01*
X6752175Y629160D01*
X6767311Y635228D01*
X6803115Y665271D01*
X6664543Y664055D02*
G01*
X6653138Y661443D01*
X6631114Y663191D01*
X6701154Y579719D01*
D10*
X7047440Y1130729D02*
G01*
X7154219Y1003475D01*
X7164456Y1120490D02*
G01*
X7037009Y1013551D01*
G36*
X3911600Y-144780D02*
G01*
X3906520Y-175260D01*
X4363720Y-172720D01*
X4363720Y-144780D01*
G37*
D12*
X3530600Y444500D02*
G01*
X3530600Y241300D01*
X3530600Y749300D02*
G01*
X3530600Y546100D01*
X3530600Y1054100D02*
G01*
X3530600Y850900D01*
X3530600Y-457200D02*
G01*
X3530600Y-660400D01*
X3530600Y-152400D02*
G01*
X3530600Y-355600D01*
X3530600Y139700D02*
G01*
X3530600Y-63500D01*
D13*
X3910215Y379999D02*
G01*
X3910215Y-379999D01*
X4370214Y379999D02*
G01*
X4370214Y-379999D01*
X3910215Y379999D02*
G01*
X3992100Y379999D01*
X4288330Y379999D02*
G01*
X4370214Y379999D01*
X3910215Y-379999D02*
G01*
X3992100Y-379999D01*
X4288330Y-379999D02*
G01*
X4370214Y-379999D01*
X8674100Y1117600D02*
G01*
X8674100Y1206500D01*
X8585200Y1206500D01*
X3632200Y1206500D02*
G01*
X3543300Y1206500D01*
X3543300Y1117600D01*
X3543300Y-1143000D02*
G01*
X3543300Y-1231900D01*
X3632200Y-1231900D01*
X8585200Y-1231900D02*
G01*
X8674100Y-1231900D01*
X8674100Y-1143000D01*
G75*
G01
X8607298Y0D02*
G03X8607298Y0I-999998J0D01*
M02*
